<svg aria-hidden="true" style="position: absolute; width: 0; height: 0; overflow: hidden;" version="1.1" xmlns="http://www.w3.org/2000/svg" xmlns:xlink="http://www.w3.org/1999/xlink">
  <defs>

    <symbol id='icon-status' viewBox="0 0 20 20" >
      <path d="M6.875 15H13.125V16.25H6.875V15Z"/>
      <path d="M8.125 17.5H11.875V18.75H8.125V17.5Z"/>
      <path d="M14.4 10C14.0815 10.5023 13.6892 10.9538 13.2362 11.3394C12.5669 11.9594 11.875 12.6 11.875 13.75H13.125C13.125 13.175 13.4538 12.8438 14.0844 12.2588C14.8209 11.6472 15.4069 10.8743 15.7969 10H14.4Z"/>
      <path d="M12.5 8.75C12.384 8.74994 12.2702 8.71758 12.1715 8.65653C12.0729 8.59549 11.9931 8.50818 11.9413 8.40438L10.8631 6.25H8.75V5H11.25C11.366 5.00007 11.4798 5.03243 11.5785 5.09347C11.6771 5.15452 11.7569 5.24183 11.8087 5.34563L12.5 6.72688L14.4413 2.84563C14.4991 2.74905 14.5809 2.66911 14.6789 2.61361C14.7768 2.55811 14.8874 2.52893 15 2.52893C15.1126 2.52893 15.2232 2.55811 15.3211 2.61361C15.4191 2.66911 15.5009 2.74905 15.5587 2.84563L16.6369 5H18.75V6.25H16.25C16.134 6.24994 16.0202 6.21758 15.9215 6.15653C15.8229 6.09549 15.7431 6.00818 15.6913 5.90438L15 4.52313L13.0587 8.40438C13.0069 8.50818 12.9271 8.59549 12.8285 8.65653C12.7298 8.71758 12.616 8.74994 12.5 8.75Z"/>
      <path d="M6.75975 11.3375C6.17441 10.8911 5.70781 10.3076 5.40101 9.63838C5.09421 8.9692 4.95663 8.23486 5.00038 7.5C5.00203 6.17443 5.52935 4.90362 6.46667 3.96629C7.404 3.02897 8.6748 2.50165 10.0004 2.5V1.25C8.34333 1.25182 6.75468 1.91088 5.58297 3.08259C4.41126 4.2543 3.7522 5.84296 3.75038 7.5C3.708 8.40799 3.88197 9.31305 4.25794 10.1406C4.63392 10.9682 5.20114 11.6946 5.91288 12.26C6.54538 12.8444 6.87538 13.1756 6.87538 13.75H8.12538C8.12538 12.6 7.43163 11.9587 6.75975 11.3375Z"/>
    </symbol>

    <symbol id='fire-icon-grey' width="30" height="30" viewBox="0 0 30 30" fill="none" xmlns="http://www.w3.org/2000/svg">
        <path d="M24.35 15.4375C22.3875 10.3375 15.4 10.0625 17.0875 2.64999C17.2125 2.09999 16.625 1.67499 16.15 1.96249C11.6125 4.63749 8.35 9.99999 11.0875 17.025C11.3125 17.6 10.6375 18.1375 10.15 17.7625C7.8875 16.05 7.65 13.5875 7.85 11.825C7.925 11.175 7.075 10.8625 6.7125 11.4C5.8625 12.7 5 14.8 5 17.9625C5.475 24.9625 11.3875 27.1125 13.5125 27.3875C16.55 27.775 19.8375 27.2125 22.2 25.05C24.8 22.6375 25.75 18.7875 24.35 15.4375ZM12.75 21.725C14.55 21.2875 15.475 19.9875 15.725 18.8375C16.1375 17.05 14.525 15.3 15.6125 12.475C16.025 14.8125 19.7 16.275 19.7 18.825C19.8 21.9875 16.375 24.7 12.75 21.725Z" fill="#AEAEAE"/>
    </symbol>

    <symbol id='fire-icon-yellow' width="30" height="30" viewBox="0 0 30 30" fill="none" xmlns="http://www.w3.org/2000/svg">
        <path d="M24.35 15.4375C22.3875 10.3375 15.4 10.0625 17.0875 2.64999C17.2125 2.09999 16.625 1.67499 16.15 1.96249C11.6125 4.63749 8.35 9.99999 11.0875 17.025C11.3125 17.6 10.6375 18.1375 10.15 17.7625C7.8875 16.05 7.65 13.5875 7.85 11.825C7.925 11.175 7.075 10.8625 6.7125 11.4C5.8625 12.7 5 14.8 5 17.9625C5.475 24.9625 11.3875 27.1125 13.5125 27.3875C16.55 27.775 19.8375 27.2125 22.2 25.05C24.8 22.6375 25.75 18.7875 24.35 15.4375ZM12.75 21.725C14.55 21.2875 15.475 19.9875 15.725 18.8375C16.1375 17.05 14.525 15.3 15.6125 12.475C16.025 14.8125 19.7 16.275 19.7 18.825C19.8 21.9875 16.375 24.7 12.75 21.725Z" fill="#ECB365"/>
    </symbol>

    <symbol id='share-icon' width="31" height="30" viewBox="0 0 31 30" fill="none" xmlns="http://www.w3.org/2000/svg">
        <path d="M19.9049 21.4946L20.2206 21.6784L20.4917 21.4334C21.0593 20.9204 21.7926 20.6 22.6064 20.6C24.3427 20.6 25.7564 22.0136 25.7564 23.75C25.7564 25.4864 24.3427 26.9 22.6064 26.9C20.87 26.9 19.4564 25.4864 19.4564 23.75C19.4564 23.5198 19.4879 23.2839 19.5428 23.0533L19.6286 22.6928L19.3086 22.5058L10.4086 17.3058L10.0886 17.1188L9.81668 17.3706C9.22701 17.9166 8.45857 18.25 7.60638 18.25C5.80753 18.25 4.35638 16.7989 4.35638 15C4.35638 13.2011 5.80753 11.75 7.60638 11.75C8.45857 11.75 9.22701 12.0834 9.81668 12.6294L10.0883 12.8809L10.4082 12.6945L19.2207 7.55696L19.5347 7.37392L19.4575 7.01879C19.3973 6.74222 19.3564 6.4961 19.3564 6.25C19.3564 4.45114 20.8075 3 22.6064 3C24.4052 3 25.8564 4.45114 25.8564 6.25C25.8564 8.04886 24.4052 9.5 22.6064 9.5C21.7542 9.5 20.9858 9.16661 20.3961 8.62062L20.1244 8.36908L19.8046 8.55554L10.9921 13.693L10.6781 13.8761L10.7553 14.2312C10.8154 14.5078 10.8564 14.7539 10.8564 15C10.8564 15.2461 10.8154 15.4922 10.7553 15.7688L10.678 16.1242L10.9924 16.3071L19.9049 21.4946Z" stroke="#AEAEAE"/>
    </symbol>






    <symbol id='icon-calender' viewBox="0 0 24 24">
      <g clip-path="url(#clip0)">
        <path d="M6.8076 0C7.03038 0 7.24404 0.0884998 7.40157 0.24603C7.5591 0.403561 7.6476 0.617218 7.6476 0.84V2.4108H16.668V0.8508C16.668 0.628018 16.7565 0.414361 16.914 0.25683C17.0716 0.0992998 17.2852 0.0108 17.508 0.0108C17.7308 0.0108 17.9444 0.0992998 18.102 0.25683C18.2595 0.414361 18.348 0.628018 18.348 0.8508V2.4108H21.6C22.2363 2.4108 22.8466 2.66349 23.2966 3.11332C23.7467 3.56315 23.9997 4.17329 24 4.8096V21.6012C23.9997 22.2375 23.7467 22.8477 23.2966 23.2975C22.8466 23.7473 22.2363 24 21.6 24H2.4C1.76369 24 1.15342 23.7473 0.703368 23.2975C0.253315 22.8477 0.000318156 22.2375 0 21.6012L0 4.8096C0.000318156 4.17329 0.253315 3.56315 0.703368 3.11332C1.15342 2.66349 1.76369 2.4108 2.4 2.4108H5.9676V0.8388C5.96792 0.616226 6.05656 0.402877 6.21405 0.245606C6.37155 0.0883348 6.58503 -2.27116e-07 6.8076 0V0ZM1.68 9.2904V21.6012C1.68 21.6958 1.69862 21.7894 1.73481 21.8767C1.77099 21.9641 1.82403 22.0435 1.89088 22.1103C1.95774 22.1772 2.03711 22.2302 2.12447 22.2664C2.21182 22.3026 2.30545 22.3212 2.4 22.3212H21.6C21.6946 22.3212 21.7882 22.3026 21.8755 22.2664C21.9629 22.2302 22.0423 22.1772 22.1091 22.1103C22.176 22.0435 22.229 21.9641 22.2652 21.8767C22.3014 21.7894 22.32 21.6958 22.32 21.6012V9.3072L1.68 9.2904ZM8.0004 17.5428V19.542H6V17.5428H8.0004ZM12.9996 17.5428V19.542H11.0004V17.5428H12.9996ZM18 17.5428V19.542H15.9996V17.5428H18ZM8.0004 12.7704V14.7696H6V12.7704H8.0004ZM12.9996 12.7704V14.7696H11.0004V12.7704H12.9996ZM18 12.7704V14.7696H15.9996V12.7704H18ZM5.9676 4.0896H2.4C2.30545 4.0896 2.21182 4.10822 2.12447 4.14441C2.03711 4.18059 1.95774 4.23362 1.89088 4.30048C1.82403 4.36734 1.77099 4.44671 1.73481 4.53407C1.69862 4.62142 1.68 4.71505 1.68 4.8096V7.6116L22.32 7.6284V4.8096C22.32 4.71505 22.3014 4.62142 22.2652 4.53407C22.229 4.44671 22.176 4.36734 22.1091 4.30048C22.0423 4.23362 21.9629 4.18059 21.8755 4.14441C21.7882 4.10822 21.6946 4.0896 21.6 4.0896H18.348V5.2044C18.348 5.42718 18.2595 5.64084 18.102 5.79837C17.9444 5.9559 17.7308 6.0444 17.508 6.0444C17.2852 6.0444 17.0716 5.9559 16.914 5.79837C16.7565 5.64084 16.668 5.42718 16.668 5.2044V4.0896H7.6476V5.1936C7.6476 5.41638 7.5591 5.63004 7.40157 5.78757C7.24404 5.9451 7.03038 6.0336 6.8076 6.0336C6.58482 6.0336 6.37116 5.9451 6.21363 5.78757C6.0561 5.63004 5.9676 5.41638 5.9676 5.1936V4.0896Z"/>
      </g>
      <defs>
        <clipPath id="clip0">
          <rect fill="white"/>
        </clipPath>
      </defs>
    </symbol>
    <symbol id='icon-time' viewBox="0 0 24 24">
      <path d="M12 2C6.486 2 2 6.486 2 12C2 17.514 6.486 22 12 22C17.514 22 22 17.514 22 12C22 6.486 17.514 2 12 2ZM12 20C7.589 20 4 16.411 4 12C4 7.589 7.589 4 12 4C16.411 4 20 7.589 20 12C20 16.411 16.411 20 12 20Z"/>
      <path d="M13 7H11V12.414L14.293 15.707L15.707 14.293L13 11.586V7Z"/>
    </symbol>
    <symbol id='icon-content' viewBox="0 0 24 24">
      <path d="M16 1H4C2.9 1 2 1.9 2 3V17H4V3H16V1ZM19 5H8C6.9 5 6 5.9 6 7V21C6 22.1 6.9 23 8 23H19C20.1 23 21 22.1 21 21V7C21 5.9 20.1 5 19 5ZM19 21H8V7H19V21Z"/>
    </symbol>
    <symbol id="icon-chevron-right" viewBox="0 0 20 20">
      <path d="M9.163 4.516c0.418 0.408 4.502 4.695 4.502 4.695 0.223 0.219 0.335 0.504 0.335 0.789s-0.112 0.57-0.335 0.787c0 0-4.084 4.289-4.502 4.695-0.418 0.408-1.17 0.436-1.615 0-0.446-0.434-0.481-1.041 0-1.574l3.747-3.908-3.747-3.908c-0.481-0.533-0.446-1.141 0-1.576s1.197-0.409 1.615 0z"></path>
    </symbol>
    <symbol id='icon-right_arrow' viewBox="0 0 30 30" >
      <path fill-rule="evenodd" clip-rule="evenodd" d="M1.875 14.9999C1.875 14.7513 1.97377 14.5128 2.14959 14.337C2.3254 14.1612 2.56386 14.0624 2.8125 14.0624L24.9244 14.0624L19.0237 8.16367C18.8477 7.98763 18.7488 7.74887 18.7488 7.49992C18.7488 7.25096 18.8477 7.0122 19.0237 6.83617C19.1998 6.66013 19.4385 6.56123 19.6875 6.56123C19.9365 6.56123 20.1752 6.66013 20.3512 6.83617L27.8512 14.3362C27.9386 14.4233 28.0078 14.5267 28.0551 14.6406C28.1023 14.7545 28.1267 14.8766 28.1267 14.9999C28.1267 15.1232 28.1023 15.2453 28.0551 15.3592C28.0078 15.4731 27.9386 15.5766 27.8512 15.6637L20.3512 23.1637C20.1752 23.3397 19.9365 23.4386 19.6875 23.4386C19.4385 23.4386 19.1998 23.3397 19.0238 23.1637C18.8477 22.9876 18.7488 22.7489 18.7488 22.4999C18.7488 22.251 18.8477 22.0122 19.0238 21.8362L24.9244 15.9374L2.8125 15.9374C2.56386 15.9374 2.3254 15.8386 2.14959 15.6628C1.97377 15.487 1.875 15.2486 1.875 14.9999Z"/>
    </symbol>
    <symbol id="icon-email" viewBox="0 0 44 44">
      <path d="M34.8333 7.33333H9.16667C7.70798 7.33333 6.30903 7.91279 5.27758 8.94424C4.24613 9.97569 3.66667 11.3746 3.66667 12.8333V31.1667C3.66667 32.6253 4.24613 34.0243 5.27758 35.0557C6.30903 36.0872 7.70798 36.6667 9.16667 36.6667H34.8333C36.292 36.6667 37.691 36.0872 38.7224 35.0557C39.7539 34.0243 40.3333 32.6253 40.3333 31.1667V12.8333C40.3333 11.3746 39.7539 9.97569 38.7224 8.94424C37.691 7.91279 36.292 7.33333 34.8333 7.33333ZM33.605 11L22 19.7083L10.395 11H33.605ZM34.8333 33H9.16667C8.68044 33 8.21412 32.8068 7.87031 32.463C7.52649 32.1192 7.33333 31.6529 7.33333 31.1667V13.2917L20.9 23.4667C21.2173 23.7047 21.6033 23.8333 22 23.8333C22.3967 23.8333 22.7827 23.7047 23.1 23.4667L36.6667 13.2917V31.1667C36.6667 31.6529 36.4735 32.1192 36.1297 32.463C35.7859 32.8068 35.3196 33 34.8333 33Z"/>
    </symbol>
    <symbol id="icon-tick" viewBox="0 0 20 20">
      <path d="M8.294 16.998c-0.435 0-0.847-0.203-1.111-0.553l-3.573-4.721c-0.465-0.613-0.344-1.486 0.27-1.951 0.615-0.467 1.488-0.344 1.953 0.27l2.351 3.104 5.911-9.492c0.407-0.652 1.267-0.852 1.921-0.445s0.854 1.266 0.446 1.92l-6.984 11.21c-0.242 0.391-0.661 0.635-1.12 0.656-0.022 0.002-0.042 0.002-0.064 0.002z"></path>
    </symbol>
    <symbol id="icon-cross" viewBox="0 0 20 20">
      <path d="M10 8.586l-7.071-7.071-1.414 1.414 7.071 7.071-7.071 7.071 1.414 1.414 7.071-7.071 7.071 7.071 1.414-1.414-7.071-7.071 7.071-7.071-1.414-1.414-7.071 7.071z"></path>
    </symbol>
    <symbol id="icon-pdf" viewBox="0 0 32 32">
      <path d="M30 18V16H24V26H26V22H29V20H26V18H30Z"/>
      <path d="M19 26H15V16H19C19.7954 16.0008 20.558 16.3171 21.1204 16.8796C21.6829 17.442 21.9992 18.2046 22 19V23C21.9992 23.7954 21.6829 24.558 21.1204 25.1204C20.558 25.6829 19.7954 25.9992 19 26ZM17 24H19C19.2651 23.9997 19.5193 23.8943 19.7068 23.7068C19.8943 23.5193 19.9997 23.2651 20 23V19C19.9997 18.7349 19.8943 18.4807 19.7068 18.2932C19.5193 18.1057 19.2651 18.0003 19 18H17V24Z"/>
      <path d="M11 16H6V26H8V23H11C11.5302 22.9992 12.0384 22.7882 12.4133 22.4133C12.7882 22.0384 12.9992 21.5302 13 21V18C12.9995 17.4697 12.7886 16.9613 12.4136 16.5864C12.0387 16.2114 11.5303 16.0005 11 16ZM8 21V18H11L11.001 21H8Z"/>
      <path d="M22 14V10C22.0035 9.86857 21.9785 9.73795 21.9268 9.6171C21.875 9.49626 21.7976 9.38808 21.7 9.3L14.7 2.3C14.612 2.20234 14.5038 2.12495 14.3829 2.07315C14.2621 2.02136 14.1314 1.9964 14 2H4C3.47005 2.00158 2.96227 2.2128 2.58753 2.58753C2.2128 2.96226 2.00158 3.47005 2 4V28C2 28.5304 2.21071 29.0391 2.58579 29.4142C2.96086 29.7893 3.46957 30 4 30H20V28H4V4H12V10C12.0016 10.5299 12.2128 11.0377 12.5875 11.4125C12.9623 11.7872 13.4701 11.9984 14 12H20V14H22ZM14 10V4.4L19.6 10H14Z"/>
    </symbol>
    <symbol id="icon-view_doc" viewBox="0 0 24 25" >
      <path d="M16.5 20.3125C17.3284 20.3125 18 19.6129 18 18.75C18 17.8871 17.3284 17.1875 16.5 17.1875C15.6716 17.1875 15 17.8871 15 18.75C15 19.6129 15.6716 20.3125 16.5 20.3125Z"/>
      <path d="M22.3328 18.343C21.8693 17.1132 21.0697 16.0521 20.0329 15.2912C18.9961 14.5303 17.7677 14.1031 16.5 14.0625C15.2323 14.1031 14.0039 14.5303 12.9671 15.2912C11.9303 16.0521 11.1307 17.1132 10.6672 18.343L10.5 18.75L10.6672 19.157C11.1307 20.3868 11.9303 21.4479 12.9671 22.2088C14.0039 22.9697 15.2323 23.3969 16.5 23.4375C17.7677 23.3969 18.9961 22.9697 20.0329 22.2088C21.0697 21.4479 21.8693 20.3868 22.3328 19.157L22.5 18.75L22.3328 18.343ZM16.5 21.875C15.9067 21.875 15.3266 21.6917 14.8333 21.3483C14.3399 21.005 13.9554 20.5169 13.7284 19.9459C13.5013 19.3749 13.4419 18.7465 13.5576 18.1403C13.6734 17.5342 13.9591 16.9773 14.3787 16.5403C14.7982 16.1033 15.3328 15.8056 15.9147 15.685C16.4967 15.5645 17.0999 15.6264 17.648 15.8629C18.1962 16.0994 18.6648 16.4999 18.9944 17.0138C19.3241 17.5277 19.5 18.1319 19.5 18.75C19.499 19.5785 19.1826 20.3727 18.6202 20.9586C18.0578 21.5444 17.2953 21.874 16.5 21.875Z"/>
      <path d="M5.25 13.2812H9V14.8438H5.25V13.2812Z"/>
      <path d="M5.25 9.375H14.25V10.9375H5.25V9.375Z"/>
      <path d="M5.25 5.46875H14.25V7.03125H5.25V5.46875Z"/>
      <path d="M16.5 1.5625H3C2.60254 1.56374 2.2217 1.72875 1.94065 2.02151C1.6596 2.31427 1.50119 2.71098 1.5 3.125V21.875C1.50119 22.289 1.6596 22.6857 1.94065 22.9785C2.2217 23.2712 2.60254 23.4363 3 23.4375H9V21.875H3V3.125H16.5V11.7188H18V3.125C17.9988 2.71098 17.8404 2.31427 17.5593 2.02151C17.2783 1.72875 16.8975 1.56374 16.5 1.5625Z"/>
    </symbol>

    <symbol id="icon-calendar" viewBox="0 0 20 20">
      <path d="M17 3h-1v2h-3v-2h-6v2h-3v-2h-1c-1.101 0-2 0.9-2 2v12c0 1.1 0.899 2 2 2h14c1.1 0 2-0.9 2-2v-12c0-1.1-0.9-2-2-2zM17 17h-14v-8h14v8zM6.5 1h-2v3.5h2v-3.5zM15.5 1h-2v3.5h2v-3.5z"></path>
    </symbol>
    <symbol id="icon-login" viewBox="0 0 70 70">
      <path d="M35.6631 5.60547C25.2383 5.57812 16.0644 10.9717 10.8213 19.1201C10.5889 19.4824 10.8486 19.9609 11.2793 19.9609H16.085C16.4131 19.9609 16.7207 19.8174 16.9258 19.5645C17.4043 18.9834 17.917 18.4228 18.457 17.8896C20.6855 15.668 23.2764 13.918 26.1611 12.7012C29.1416 11.4434 32.3135 10.8008 35.5879 10.8008C38.8623 10.8008 42.0342 11.4365 45.0147 12.7012C47.8994 13.918 50.4902 15.668 52.7188 17.8896C54.9473 20.1113 56.6904 22.7021 57.9141 25.5801C59.1787 28.5605 59.8145 31.7256 59.8145 35C59.8145 38.2744 59.1719 41.4394 57.9141 44.4199C56.6973 47.2978 54.9473 49.8887 52.7188 52.1103C50.4902 54.332 47.8994 56.082 45.0147 57.2988C42.0318 58.5587 38.8259 59.205 35.5879 59.1992C32.3135 59.1992 29.1416 58.5566 26.1611 57.2988C23.282 56.0833 20.6658 54.3213 18.457 52.1103C17.917 51.5703 17.4111 51.0098 16.9258 50.4355C16.7207 50.1826 16.4062 50.0391 16.085 50.0391H11.2793C10.8486 50.0391 10.582 50.5176 10.8213 50.8799C16.0576 59.0078 25.1904 64.3945 35.5879 64.3945C51.7344 64.3945 64.8457 51.3994 65.0098 35.3008C65.1738 18.9424 52.042 5.64648 35.6631 5.60547ZM27.0033 42.6562V37.4609H5.53847C5.23769 37.4609 4.99159 37.2148 4.99159 36.9141V33.0859C4.99159 32.7852 5.23769 32.5391 5.53847 32.5391H27.0033V27.3437C27.0033 26.8857 27.5365 26.626 27.892 26.9131L37.5922 34.5693C37.6576 34.6205 37.7104 34.6859 37.7468 34.7605C37.7831 34.8351 37.802 34.917 37.802 35C37.802 35.083 37.7831 35.1649 37.7468 35.2395C37.7104 35.3141 37.6576 35.3795 37.5922 35.4307L27.892 43.0869C27.5365 43.3672 27.0033 43.1143 27.0033 42.6562Z"/>
    </symbol>
    <symbol id="icon-key" viewBox="0 0 44 44">
      <path d="M41.1316 19.767C41.1128 19.5608 41.0173 19.3691 40.864 19.2298C40.7106 19.0906 40.5107 19.014 40.3036 19.015H22.9363C21.7919 14.6291 17.8086 11.3793 13.0689 11.3793C7.43908 11.3793 2.86 15.9584 2.86 21.5882C2.86 27.2193 7.43908 31.797 13.0689 31.797C18.1047 31.797 22.2882 28.131 23.1185 23.3306H26.9861V28.838H26.9922C27.0073 29.048 27.1012 29.2444 27.2551 29.3879C27.4091 29.5314 27.6116 29.6113 27.8221 29.6116C27.8335 29.6116 27.8436 29.6089 27.8551 29.6085V29.6133H30.5391V29.612C30.7496 29.612 30.9523 29.5321 31.1063 29.3886C31.2603 29.2451 31.3541 29.0485 31.3689 28.8385H31.376V23.331H33.5667V31.8463H33.5733C33.5886 32.0563 33.6827 32.2527 33.8366 32.3963C33.9906 32.5399 34.1931 32.6201 34.4036 32.6207L34.4128 32.6198H37.1021L37.1114 32.6207C37.3219 32.62 37.5243 32.5398 37.6782 32.3962C37.8322 32.2526 37.9262 32.0562 37.9416 31.8463H37.9482V23.3306H40.3044V23.3297C40.5261 23.3293 40.7386 23.2411 40.8954 23.0843C41.0521 22.9275 41.1402 22.7149 41.1404 22.4932H41.14V19.7666H41.1316V19.767ZM13.0689 27.5141C9.84016 27.5141 7.21336 24.8855 7.21336 21.6572C7.21336 18.4285 9.84016 15.8004 13.0689 15.8004C16.2972 15.8004 18.9226 18.4285 18.9226 21.6572C18.9231 24.886 16.2972 27.5141 13.0689 27.5141Z"/>
    </symbol>
    <symbol id="icon-change_password" viewBox="0 0 20 20">
      <path d="M17.0502 10.7297V6.74642C17.0502 6.32385 16.8823 5.91858 16.5835 5.61978C16.2847 5.32098 15.8794 5.15311 15.4569 5.15311H4.30375C3.88118 5.15311 3.47592 5.32098 3.17712 5.61978C2.87831 5.91858 2.71045 6.32385 2.71045 6.74642V11.5263C2.71045 11.9489 2.87831 12.3542 3.17712 12.653C3.47592 12.9518 3.88118 13.1196 4.30375 13.1196H9.88031" stroke="#00B6EE" stroke-width="1.5" stroke-linecap="round" stroke-linejoin="round"/>
      <path d="M16.9539 13.8502C17.3474 14.0923 17.3227 14.6811 16.918 14.7273L14.873 14.9591L13.9561 16.8009C13.7744 17.1666 13.2128 16.9874 13.1196 16.5349L12.1198 11.6626C12.0409 11.2802 12.3851 11.0396 12.7173 11.2443L16.9539 13.8502V13.8502Z" stroke="#00B6EE" stroke-width="1.5"/>
      <path d="M9.88037 9.14481L9.88877 9.13557" stroke="#00B6EE" stroke-width="1.5" stroke-linecap="round" stroke-linejoin="round"/>
      <path d="M13.0669 9.14481L13.0753 9.13557" stroke="#00B6EE" stroke-width="1.5" stroke-linecap="round" stroke-linejoin="round"/>
      <path d="M6.69385 9.14481L6.70224 9.13557" stroke="#00B6EE" stroke-width="1.5" stroke-linecap="round" stroke-linejoin="round"/>
    </symbol>
    <symbol id='icon-edit' viewBox="0 0 18 18">
      <path d="M16.001 11c-0.553 0-1 0.448-1 1v2.5c0 0.276-0.224 0.5-0.5 0.5h-11.002c-0.276 0-0.5-0.224-0.5-0.5v-11c0-0.276 0.224-0.5 0.5-0.5h2.5c0.553 0 1-0.448 1-1s-0.448-1-1-1h-4c-0.553 0-1 0.448-1 1v14c0 0.552 0.448 1 1 1h14.002c0.553 0 1-0.448 1-1v-4c0-0.552-0.447-1-1-1z"></path>
      <path d="M13.169 3.403l1.429 1.429-5.948 6.168h-1.65v-1.65l6.169-5.947zM13.182 1c-0.256 0-0.511 0.097-0.706 0.292l-7.476 7.208v4.5h4.501l7.209-7.475c0.39-0.39 0.39-1.021 0-1.411l-2.822-2.822c-0.194-0.195-0.45-0.292-0.705-0.292v0z"></path>
    </symbol>
    <symbol id='icon-edit2' viewBox="0 0 25 25">
      <g clip-path="url(#clip0)">
        <path d="M12.5121 6.0087C12.1946 6.00695 11.8888 6.07545 11.6646 6.1987L0.345336 12.4099C-0.116414 12.6629 -0.116414 13.0737 0.345336 13.3269L11.6641 19.5382C12.1256 19.7914 12.8736 19.7914 13.3351 19.5382L24.6541 13.3275C25.1158 13.0742 25.1158 12.6634 24.6541 12.4104L19.8163 9.75495L18.7088 10.9807L22.1488 12.8682L12.4998 18.1637L2.85134 12.8687L12.4998 7.5737L12.6948 7.68095L13.8173 6.46345L13.3353 6.19895C13.1168 6.07895 12.8211 6.0107 12.5121 6.00895V6.0087ZM1.18159 15.2142L0.345586 15.6727C-0.116164 15.926 -0.116164 16.3367 0.345586 16.5897L11.6643 22.8012C12.1258 23.0545 12.8738 23.0545 13.3353 22.8012L24.6541 16.5899C25.1156 16.3367 25.1153 15.9262 24.6536 15.6729L23.8181 15.2144L22.1473 16.1309L22.1483 16.1314L12.4998 21.4262L2.85084 16.1312L2.85184 16.1307L1.18159 15.2142Z"/>
        <path d="M22.5902 0.217969C22.4506 0.0784799 22.2614 0.00012207 22.0641 0.00012207C21.8667 0.00012207 21.6775 0.0784799 21.5379 0.217969L12.8354 8.92047C12.7629 8.99297 12.7084 9.07697 12.6722 9.16672L11.4834 13.3225C11.4289 13.4942 11.5127 13.5675 11.6979 13.5107L15.8332 12.3277C15.9229 12.2915 16.0069 12.2372 16.0794 12.1645L24.7819 3.46197C24.9215 3.3224 24.9999 3.1331 24.9999 2.93572C24.9999 2.73834 24.9215 2.54904 24.7819 2.40947L22.5902 0.217969ZM20.6962 3.16447L21.8354 4.30372L15.5534 10.5862L14.4139 9.44647L20.6962 3.16447Z"/>
        <path d="M22.5902 0.217969C22.4506 0.0784799 22.2614 0.00012207 22.0641 0.00012207C21.8667 0.00012207 21.6775 0.0784799 21.5379 0.217969L12.8354 8.92047C12.7629 8.99297 12.7084 9.07697 12.6722 9.16672L11.4834 13.3225C11.4289 13.4942 11.5127 13.5675 11.6979 13.5107L15.8332 12.3277C15.9229 12.2915 16.0069 12.2372 16.0794 12.1645L24.7819 3.46197C24.9215 3.3224 24.9999 3.1331 24.9999 2.93572C24.9999 2.73834 24.9215 2.54904 24.7819 2.40947L22.5902 0.217969ZM20.6962 3.16447L21.8354 4.30372L15.5534 10.5862L14.4139 9.44647L20.6962 3.16447Z"/>
      </g>
      <defs>
        <clipPath id="clip0">
          <rect width="25" height="25" fill="white"/>
        </clipPath>
      </defs>
    </symbol>

    <symbol id='icon-delete' viewBox="0 0 18 19">
      <path d="M6.43914 3.55428H6.30083C6.3769 3.55428 6.43914 3.49204 6.43914 3.41597V3.55428H11.6948V3.41597C11.6948 3.49204 11.7571 3.55428 11.8331 3.55428H11.6948V4.79904H12.9396V3.41597C12.9396 2.80569 12.4434 2.30951 11.8331 2.30951H6.30083C5.69055 2.30951 5.19437 2.80569 5.19437 3.41597V4.79904H6.43914V3.55428ZM15.1525 4.79904H2.98145C2.67545 4.79904 2.42822 5.04627 2.42822 5.35227V5.9055C2.42822 5.98157 2.49046 6.04381 2.56653 6.04381H3.61075L4.03778 15.0857C4.06544 15.6752 4.55297 16.1403 5.14251 16.1403H12.9915C13.5827 16.1403 14.0685 15.6769 14.0962 15.0857L14.5232 6.04381H15.5674C15.6435 6.04381 15.7057 5.98157 15.7057 5.9055V5.35227C15.7057 5.04627 15.4585 4.79904 15.1525 4.79904ZM12.8583 14.8955H5.27563L4.85725 6.04381H13.2767L12.8583 14.8955Z"/>
    </symbol>
    <symbol id='icon-delete2' viewBox="0 0 24 24">
      <path d="M12 1.75C12.8301 1.74995 13.6288 2.06755 14.2322 2.63767C14.8356 3.20779 15.198 3.98719 15.245 4.816L15.25 5H20.5C20.69 5.00006 20.8729 5.07224 21.0118 5.20197C21.1506 5.3317 21.2351 5.5093 21.248 5.69888C21.261 5.88846 21.2015 6.07589 21.0816 6.2233C20.9617 6.37071 20.7902 6.4671 20.602 6.493L20.5 6.5H19.704L18.424 19.52C18.3599 20.1691 18.0671 20.7743 17.598 21.2275C17.1289 21.6806 16.5139 21.9523 15.863 21.994L15.687 22H8.313C7.66046 22 7.02919 21.7679 6.53201 21.3453C6.03482 20.9227 5.70412 20.337 5.599 19.693L5.576 19.519L4.295 6.5H3.5C3.31876 6.49999 3.14366 6.43436 3.00707 6.31523C2.87048 6.19611 2.78165 6.03155 2.757 5.852L2.75 5.75C2.75001 5.56876 2.81564 5.39366 2.93477 5.25707C3.05389 5.12048 3.21845 5.03165 3.398 5.007L3.5 5H8.75C8.75 4.13805 9.09241 3.3114 9.7019 2.7019C10.3114 2.09241 11.138 1.75 12 1.75ZM18.197 6.5H5.802L7.069 19.372C7.09705 19.6592 7.22362 19.9279 7.42722 20.1324C7.63082 20.3369 7.89892 20.4647 8.186 20.494L8.313 20.5H15.687C16.287 20.5 16.796 20.075 16.912 19.498L16.932 19.372L18.196 6.5H18.197ZM13.75 9.25C13.9312 9.25001 14.1063 9.31564 14.2429 9.43477C14.3795 9.55389 14.4684 9.71845 14.493 9.898L14.5 10V17C14.4999 17.19 14.4278 17.3729 14.298 17.5118C14.1683 17.6506 13.9907 17.7351 13.8011 17.748C13.6115 17.761 13.4241 17.7015 13.2767 17.5816C13.1293 17.4617 13.0329 17.2902 13.007 17.102L13 17V10C13 9.80109 13.079 9.61032 13.2197 9.46967C13.3603 9.32902 13.5511 9.25 13.75 9.25ZM10.25 9.25C10.4312 9.25001 10.6063 9.31564 10.7429 9.43477C10.8795 9.55389 10.9684 9.71845 10.993 9.898L11 10V17C10.9999 17.19 10.9278 17.3729 10.798 17.5118C10.6683 17.6506 10.4907 17.7351 10.3011 17.748C10.1115 17.761 9.92411 17.7015 9.7767 17.5816C9.62929 17.4617 9.5329 17.2902 9.507 17.102L9.5 17V10C9.5 9.80109 9.57902 9.61032 9.71967 9.46967C9.86032 9.32902 10.0511 9.25 10.25 9.25ZM12 3.25C11.5608 3.25002 11.1377 3.41517 10.8146 3.71268C10.4915 4.01019 10.2921 4.4183 10.256 4.856L10.25 5H13.75C13.75 4.53587 13.5656 4.09075 13.2374 3.76256C12.9092 3.43437 12.4641 3.25 12 3.25Z"/>
    </symbol>

    <symbol id="icon-phone" viewBox="0 0 24 24">
      <path d="M23 16.92c0.016-0.714-0.236-1.404-0.673-1.943-0.46-0.566-1.129-0.967-1.925-1.080-0.8-0.098-1.695-0.314-2.586-0.646-0.433-0.159-0.893-0.218-1.344-0.174-0.663 0.064-1.307 0.349-1.819 0.855l-0.72 0.72c-1.77-1.117-3.36-2.667-4.583-4.589l0.726-0.726c0.322-0.33 0.563-0.726 0.707-1.156 0.212-0.632 0.214-1.336-0.039-2.011-0.289-0.753-0.518-1.644-0.644-2.595-0.104-0.714-0.456-1.345-0.963-1.804-0.539-0.486-1.256-0.779-2.027-0.771h-2.996c-0.088 0-0.182 0.004-0.273 0.012-0.824 0.075-1.542 0.478-2.033 1.066s-0.758 1.367-0.683 2.199c0.3 3.076 1.365 6.243 3.216 9.102 1.502 2.413 3.648 4.623 6.298 6.306 2.568 1.697 5.684 2.862 9.086 3.231 0.092 0.009 0.191 0.013 0.288 0.013 0.828-0.003 1.578-0.343 2.118-0.887s0.873-1.297 0.87-2.121zM21 16.92v3c0.001 0.28-0.109 0.53-0.29 0.712s-0.429 0.295-0.706 0.296c-3.149-0.336-5.961-1.391-8.263-2.912-2.428-1.543-4.359-3.537-5.702-5.694-1.697-2.62-2.655-5.481-2.924-8.238-0.024-0.268 0.064-0.526 0.229-0.724s0.403-0.33 0.678-0.355l3.088-0.005c0.271-0.003 0.507 0.094 0.687 0.256 0.17 0.154 0.288 0.366 0.323 0.608 0.142 1.072 0.408 2.117 0.757 3.025 0.081 0.216 0.080 0.447 0.010 0.658-0.049 0.145-0.131 0.281-0.242 0.395l-1.262 1.261c-0.324 0.324-0.379 0.814-0.162 1.201 1.584 2.785 3.839 4.957 6.381 6.378 0.397 0.222 0.882 0.144 1.195-0.166l1.27-1.27c0.166-0.164 0.377-0.257 0.598-0.279 0.152-0.015 0.31 0.005 0.459 0.060 1.022 0.381 2.070 0.636 3.034 0.754 0.241 0.034 0.462 0.166 0.615 0.355 0.147 0.181 0.231 0.412 0.226 0.682z"></path>
    </symbol>

    <symbol id="icon-title" width="24" height="24" viewBox="0 0 24 24" fill="none" xmlns="http://www.w3.org/2000/svg">
      <path d="M5 4V7H10.5V19H13.5V7H19V4H5Z" fill="white"/>
    </symbol>

      <symbol id="icon-address" width="22" height="22" viewBox="0 0 27 27" fill="none" xmlns="http://www.w3.org/2000/svg">
        <path d="M13.5 25.3125L6.38213 16.918C6.28323 16.792 6.18535 16.6651 6.08851 16.5375C4.87265 14.9359 4.21581 12.9796 4.21876 10.9688C4.21876 8.50721 5.1966 6.14649 6.93718 4.40592C8.67775 2.66534 11.0385 1.6875 13.5 1.6875C15.9616 1.6875 18.3223 2.66534 20.0628 4.40592C21.8034 6.14649 22.7813 8.50721 22.7813 10.9688C22.7842 12.9787 22.1277 14.9341 20.9124 16.535L20.9115 16.5375C20.9115 16.5375 20.6584 16.8699 20.6204 16.9147L13.5 25.3125ZM7.43514 15.5208C7.43682 15.5208 7.63257 15.7807 7.67729 15.8363L13.5 22.7036L19.3303 15.8271C19.3674 15.7807 19.5649 15.5191 19.5657 15.5183C20.5589 14.2097 21.0957 12.6116 21.0938 10.9688C21.0938 8.95476 20.2937 7.02326 18.8696 5.59916C17.4455 4.17505 15.514 3.375 13.5 3.375C11.486 3.375 9.55452 4.17505 8.13042 5.59916C6.70631 7.02326 5.90626 8.95476 5.90626 10.9688C5.90449 12.6126 6.44185 14.2116 7.43598 15.5208H7.43514Z" fill="white"/>
        <path d="M17.7188 15.1875H16.0312V8.4375H10.9688V15.1875H9.28125V8.4375C9.2817 7.99008 9.45963 7.56112 9.776 7.24475C10.0924 6.92838 10.5213 6.75045 10.9688 6.75H16.0312C16.4787 6.75045 16.9076 6.92838 17.224 7.24475C17.5404 7.56112 17.7183 7.99008 17.7188 8.4375V15.1875Z" fill="white"/>
        <path d="M12.6562 13.5H14.3438V15.1875H12.6562V13.5Z" fill="white"/>
        <path d="M12.6562 10.125H14.3438V11.8125H12.6562V10.125Z" fill="white"/>
      </symbol>

    <symbol id='icon-city' width="22" height="22" viewBox="0 0 27 27" fill="none" xmlns="http://www.w3.org/2000/svg">
      <path d="M23.625 6.75H19.125V3.375C19.125 3.07663 19.0065 2.79048 18.7955 2.5795C18.5845 2.36853 18.2984 2.25 18 2.25H9C8.70163 2.25 8.41548 2.36853 8.2045 2.5795C7.99353 2.79048 7.875 3.07663 7.875 3.375V11.25H3.375C3.07663 11.25 2.79048 11.3685 2.5795 11.5795C2.36853 11.7905 2.25 12.0766 2.25 12.375V21.375C2.25 21.6734 2.36853 21.9595 2.5795 22.1705C2.79048 22.3815 3.07663 22.5 3.375 22.5H23.625C23.9234 22.5 24.2095 22.3815 24.4205 22.1705C24.6315 21.9595 24.75 21.6734 24.75 21.375V7.875C24.75 7.57663 24.6315 7.29048 24.4205 7.0795C24.2095 6.86853 23.9234 6.75 23.625 6.75ZM6.75 20.25H4.5V18H6.75V20.25ZM6.75 15.75H4.5V13.5H6.75V15.75ZM12.375 20.25H10.125V18H12.375V20.25ZM12.375 15.75H10.125V13.5H12.375V15.75ZM12.375 11.25H10.125V9H12.375V11.25ZM12.375 6.75H10.125V4.5H12.375V6.75ZM16.875 20.25H14.625V18H16.875V20.25ZM16.875 15.75H14.625V13.5H16.875V15.75ZM16.875 11.25H14.625V9H16.875V11.25ZM16.875 6.75H14.625V4.5H16.875V6.75ZM22.5 20.25H20.25V18H22.5V20.25ZM22.5 15.75H20.25V13.5H22.5V15.75ZM22.5 11.25H20.25V9H22.5V11.25Z" fill="white"/>
    </symbol>

    <symbol id='icon-state' width="22" height="22" viewBox="0 0 27 27" fill="none" xmlns="http://www.w3.org/2000/svg">
      <path d="M7.68811 21.33H24.1489V7.24625H7.68811V21.33ZM16.0522 8.64809L21.9868 13.831H20.4915V20.0497H17.0161V15.66H14.821V20.0497H11.5291V13.831H9.99553L16.0522 8.64809ZM5.85913 3.77135V0.549713H2.20117V27H5.85913V5.41781H24.8812V3.77135H5.85913Z" fill="white"/>
    </symbol>
    <symbol id='icon-state-small' width="16" height="16" viewBox="0 0 27 27" fill="none" xmlns="http://www.w3.org/2000/svg">
      <path d="M7.68811 21.33H24.1489V7.24625H7.68811V21.33ZM16.0522 8.64809L21.9868 13.831H20.4915V20.0497H17.0161V15.66H14.821V20.0497H11.5291V13.831H9.99553L16.0522 8.64809ZM5.85913 3.77135V0.549713H2.20117V27H5.85913V5.41781H24.8812V3.77135H5.85913Z" fill="white"/>
    </symbol>

    <symbol id='icon-zip' width="22" height="22" viewBox="0 0 27 27" fill="none" xmlns="http://www.w3.org/2000/svg">
      <path d="M13.5 19.125L14.625 16.875V11.0902C16.5611 10.5874 18 8.84025 18 6.75C18 4.26825 15.9818 2.25 13.5 2.25C11.0182 2.25 9 4.26825 9 6.75C9 8.84025 10.4389 10.5874 12.375 11.0902V16.875L13.5 19.125ZM11.25 6.75C11.25 5.50912 12.2591 4.5 13.5 4.5C14.7409 4.5 15.75 5.50912 15.75 6.75C15.75 7.99088 14.7409 9 13.5 9C12.2591 9 11.25 7.99088 11.25 6.75Z" fill="white"/>
      <path d="M18.3004 11.8834L17.7008 14.0524C20.6156 14.8579 22.5 16.407 22.5 18C22.5 20.1285 18.8044 22.5 13.5 22.5C8.19562 22.5 4.5 20.1285 4.5 18C4.5 16.407 6.38438 14.8579 9.30038 14.0513L8.70075 11.8823C4.72163 12.9825 2.25 15.3259 2.25 18C2.25 21.7845 7.19213 24.75 13.5 24.75C19.8079 24.75 24.75 21.7845 24.75 18C24.75 15.3259 22.2784 12.9825 18.3004 11.8834V11.8834Z" fill="white"/>
    </symbol>
<!--
  <symbol id='icon-next' width="27" height="27" viewBox="0 0 24 24" fill="none" xmlns="http://www.w3.org/2000/svg">
    <path d="M19 4H17C16.7348 4 16.4804 4.10536 16.2929 4.29289C16.1054 4.48043 16 4.73478 16 5C16 5.26522 16.1054 5.51957 16.2929 5.70711C16.4804 5.89464 16.7348 6 17 6H18V18H17C16.7348 18 16.4804 18.1054 16.2929 18.2929C16.1054 18.4804 16 18.7348 16 19C16 19.2652 16.1054 19.5196 16.2929 19.7071C16.4804 19.8946 16.7348 20 17 20H19C19.2652 20 19.5196 19.8946 19.7071 19.7071C19.8946 19.5196 20 19.2652 20 19V5C20 4.73478 19.8946 4.48043 19.7071 4.29289C19.5196 4.10536 19.2652 4 19 4ZM11.8 7.4C11.6409 7.18783 11.404 7.04756 11.1414 7.01005C10.8789 6.97254 10.6122 7.04087 10.4 7.2C10.1878 7.35913 10.0476 7.59603 10.0101 7.85858C9.97254 8.12113 10.0409 8.38783 10.2 8.6L12 11H4C3.73478 11 3.48043 11.1054 3.29289 11.2929C3.10536 11.4804 3 11.7348 3 12C3 12.2652 3.10536 12.5196 3.29289 12.7071C3.48043 12.8946 3.73478 13 4 13H12.09L10.37 15.44C10.2933 15.5475 10.2386 15.6691 10.2091 15.7978C10.1796 15.9266 10.1759 16.0599 10.1982 16.19C10.2206 16.3202 10.2684 16.4446 10.3391 16.5562C10.4098 16.6678 10.5018 16.7642 10.61 16.84C10.78 16.9587 10.9827 17.0216 11.19 17.02C11.3486 17.0193 11.5048 16.9808 11.6457 16.9078C11.7865 16.8347 11.908 16.7292 12 16.6L14.82 12.6C14.9451 12.4287 15.0126 12.2221 15.0126 12.01C15.0126 11.7979 14.9451 11.5913 14.82 11.42L11.8 7.4Z" fill="white"/>
  </symbol> -->

    <symbol id="icon-plus" viewBox="0 0 24 24">
      <path d="M5 13h6v6c0 0.552 0.448 1 1 1s1-0.448 1-1v-6h6c0.552 0 1-0.448 1-1s-0.448-1-1-1h-6v-6c0-0.552-0.448-1-1-1s-1 0.448-1 1v6h-6c-0.552 0-1 0.448-1 1s0.448 1 1 1z"></path>
    </symbol>
    <symbol id="icon-search" viewBox="0 0 24 24">
      <path d="M16.041 15.856c-0.034 0.026-0.067 0.055-0.099 0.087s-0.060 0.064-0.087 0.099c-1.258 1.213-2.969 1.958-4.855 1.958-1.933 0-3.682-0.782-4.95-2.050s-2.050-3.017-2.050-4.95 0.782-3.682 2.050-4.95 3.017-2.050 4.95-2.050 3.682 0.782 4.95 2.050 2.050 3.017 2.050 4.95c0 1.886-0.745 3.597-1.959 4.856zM21.707 20.293l-3.675-3.675c1.231-1.54 1.968-3.493 1.968-5.618 0-2.485-1.008-4.736-2.636-6.364s-3.879-2.636-6.364-2.636-4.736 1.008-6.364 2.636-2.636 3.879-2.636 6.364 1.008 4.736 2.636 6.364 3.879 2.636 6.364 2.636c2.125 0 4.078-0.737 5.618-1.968l3.675 3.675c0.391 0.391 1.024 0.391 1.414 0s0.391-1.024 0-1.414z"></path>
    </symbol>
    <symbol id="icon-user" viewBox="0 0 23 23">
      <path d="M19.2828 17.1512C18.8591 16.1476 18.2442 15.2359 17.4724 14.4671C16.703 13.696 15.7915 13.0813 14.7883 12.6567C14.7794 12.6522 14.7704 12.65 14.7614 12.6455C16.1607 11.6348 17.0704 9.98838 17.0704 8.13086C17.0704 5.05371 14.5772 2.56055 11.5001 2.56055C8.42291 2.56055 5.92974 5.05371 5.92974 8.13086C5.92974 9.98838 6.83941 11.6348 8.23873 12.6478C8.22974 12.6522 8.22076 12.6545 8.21177 12.659C7.20552 13.0835 6.3026 13.6922 5.52769 14.4693C4.75663 15.2388 4.14186 16.1502 3.71734 17.1534C3.30029 18.1355 3.07537 19.1885 3.05474 20.2553C3.05414 20.2792 3.05835 20.3031 3.06711 20.3254C3.07587 20.3477 3.08901 20.3681 3.10576 20.3852C3.1225 20.4024 3.14252 20.416 3.16461 20.4254C3.18671 20.4347 3.21045 20.4395 3.23443 20.4395H4.58209C4.68092 20.4395 4.75953 20.3608 4.76177 20.2643C4.8067 18.5303 5.50299 16.9063 6.73384 15.6755C8.00738 14.402 9.69869 13.7012 11.5001 13.7012C13.3014 13.7012 14.9927 14.402 16.2663 15.6755C17.4971 16.9063 18.1934 18.5303 18.2383 20.2643C18.2406 20.3631 18.3192 20.4395 18.418 20.4395H19.7657C19.7897 20.4395 19.8134 20.4347 19.8355 20.4254C19.8576 20.416 19.8776 20.4024 19.8944 20.3852C19.9111 20.3681 19.9242 20.3477 19.933 20.3254C19.9418 20.3031 19.946 20.2792 19.9454 20.2553C19.9229 19.1816 19.7005 18.1372 19.2828 17.1512ZM11.5001 11.9941C10.4691 11.9941 9.49879 11.5921 8.76881 10.8621C8.03883 10.1321 7.63677 9.16182 7.63677 8.13086C7.63677 7.0999 8.03883 6.12959 8.76881 5.39961C9.49879 4.66963 10.4691 4.26758 11.5001 4.26758C12.531 4.26758 13.5013 4.66963 14.2313 5.39961C14.9613 6.12959 15.3633 7.0999 15.3633 8.13086C15.3633 9.16182 14.9613 10.1321 14.2313 10.8621C13.5013 11.5921 12.531 11.9941 11.5001 11.9941Z"/>
    </symbol>
    <symbol id="icon-dashboard" viewBox="0 0 24 24">
      <path d="M4 13H10C10.2652 13 10.5196 12.8946 10.7071 12.7071C10.8946 12.5196 11 12.2652 11 12V4C11 3.73478 10.8946 3.48043 10.7071 3.29289C10.5196 3.10536 10.2652 3 10 3H4C3.73478 3 3.48043 3.10536 3.29289 3.29289C3.10536 3.48043 3 3.73478 3 4V12C3 12.2652 3.10536 12.5196 3.29289 12.7071C3.48043 12.8946 3.73478 13 4 13ZM3 20C3 20.2652 3.10536 20.5196 3.29289 20.7071C3.48043 20.8946 3.73478 21 4 21H10C10.2652 21 10.5196 20.8946 10.7071 20.7071C10.8946 20.5196 11 20.2652 11 20V16C11 15.7348 10.8946 15.4804 10.7071 15.2929C10.5196 15.1054 10.2652 15 10 15H4C3.73478 15 3.48043 15.1054 3.29289 15.2929C3.10536 15.4804 3 15.7348 3 16V20ZM13 20C13 20.2652 13.1054 20.5196 13.2929 20.7071C13.4804 20.8946 13.7348 21 14 21H20C20.2652 21 20.5196 20.8946 20.7071 20.7071C20.8946 20.5196 21 20.2652 21 20V13C21 12.7348 20.8946 12.4804 20.7071 12.2929C20.5196 12.1054 20.2652 12 20 12H14C13.7348 12 13.4804 12.1054 13.2929 12.2929C13.1054 12.4804 13 12.7348 13 13V20ZM14 10H20C20.2652 10 20.5196 9.89464 20.7071 9.70711C20.8946 9.51957 21 9.26522 21 9V4C21 3.73478 20.8946 3.48043 20.7071 3.29289C20.5196 3.10536 20.2652 3 20 3H14C13.7348 3 13.4804 3.10536 13.2929 3.29289C13.1054 3.48043 13 3.73478 13 4V9C13 9.26522 13.1054 9.51957 13.2929 9.70711C13.4804 9.89464 13.7348 10 14 10Z"/>
    </symbol>
    <symbol id="icon-doctor" viewBox="0 0 24 24">
      <path d="M12 14V22H4C4 19.8783 4.84285 17.8434 6.34315 16.3431C7.84344 14.8429 9.87827 14 12 14ZM12 13C8.685 13 6 10.315 6 7C6 3.685 8.685 1 12 1C15.315 1 18 3.685 18 7C18 10.315 15.315 13 12 13ZM21 17H22V22H14V17H15V16C15 15.2044 15.3161 14.4413 15.8787 13.8787C16.4413 13.3161 17.2044 13 18 13C18.7956 13 19.5587 13.3161 20.1213 13.8787C20.6839 14.4413 21 15.2044 21 16V17ZM19 17V16C19 15.7348 18.8946 15.4804 18.7071 15.2929C18.5196 15.1054 18.2652 15 18 15C17.7348 15 17.4804 15.1054 17.2929 15.2929C17.1054 15.4804 17 15.7348 17 16V17H19Z"/>
    </symbol>
    <symbol id="icon-clinic" viewBox="0 0 24 24">
      <path d="M21.743 12.331L12.743 2.331C12.364 1.909 11.636 1.909 11.257 2.331L2.25698 12.331C2.12744 12.4746 2.04241 12.6527 2.01223 12.8438C1.98205 13.0348 2.00802 13.2305 2.08698 13.407C2.24698 13.768 2.60498 14 2.99998 14H4.99998V21C4.99998 21.2652 5.10534 21.5196 5.29288 21.7071C5.48041 21.8946 5.73477 22 5.99998 22H18C18.2652 22 18.5196 21.8946 18.7071 21.7071C18.8946 21.5196 19 21.2652 19 21V14H21C21.1937 14.0008 21.3834 13.9453 21.546 13.8401C21.7087 13.735 21.8372 13.5848 21.916 13.4079C21.9947 13.231 22.0203 13.0349 21.9896 12.8437C21.9589 12.6525 21.8732 12.4744 21.743 12.331ZM16 15H13V18H11V15H7.99998V13H11V10H13V13H16V15Z"/>
    </symbol>
    <symbol id="icon-verify" viewBox="0 0 18 18" >
    <path fill-rule="evenodd" clip-rule="evenodd" d="M8.7024 0.0791677C8.79304 0.0273934 8.89562 0.000161171 9 0.000161171C9.10438 0.000161171 9.20696 0.0273934 9.2976 0.0791677L17.6976 4.87917C17.7894 4.93162 17.8658 5.00742 17.9189 5.09888C17.972 5.19034 18 5.29421 18 5.39997V6.26397C18 11.7024 14.394 16.4832 9.1644 17.976C9.05694 18.0066 8.94306 18.0066 8.8356 17.976C6.29038 17.2488 4.05128 15.7123 2.45709 13.5991C0.862892 11.486 0.000360414 8.91104 0 6.26397L0 5.39997C3.41124e-05 5.29421 0.0280215 5.19034 0.0811266 5.09888C0.134232 5.00742 0.210568 4.93162 0.3024 4.87917L8.7024 0.0791677ZM8.4864 12.8532L13.668 6.37437L12.732 5.62557L8.3136 11.1468L5.184 8.53917L4.416 9.46077L8.4864 12.8532Z"/>
    </symbol>

    <symbol id="icon-users" viewBox="0 0 25 25">
      <path d="M8.33328 11.2083H7.72911C6.90464 11.1785 6.08284 11.3185 5.31471 11.6195C4.54658 11.9206 3.84851 12.3763 3.26383 12.9583L3.09717 13.1528V18.9028H5.9305V15.6389L6.31245 15.2083L6.48606 15.0069C7.39017 14.0781 8.51577 13.3946 9.75689 13.0208C9.1355 12.548 8.64542 11.9241 8.33328 11.2083Z"/>
      <path d="M21.7639 12.9375C21.1793 12.3554 20.4812 11.8998 19.7131 11.5987C18.9449 11.2977 18.1231 11.1577 17.2987 11.1875C17.0458 11.1882 16.7931 11.2021 16.5417 11.2292C16.2237 11.9006 15.747 12.4846 15.1528 12.9306C16.4778 13.2971 17.6781 14.0173 18.6251 15.0139L18.7987 15.2083L19.1737 15.6389V18.9097H21.9098V13.132L21.7639 12.9375Z"/>
      <path d="M7.70841 9.85416H7.92369C7.82366 8.9953 7.97436 8.12585 8.3576 7.35075C8.74083 6.57566 9.34022 5.92805 10.0834 5.48611C9.81401 5.07454 9.44234 4.74 9.0048 4.51524C8.56726 4.29047 8.07885 4.18319 7.58739 4.2039C7.09593 4.22462 6.61828 4.37261 6.2012 4.63338C5.78412 4.89416 5.44192 5.25879 5.2081 5.69156C4.97428 6.12433 4.85686 6.6104 4.86734 7.10219C4.87783 7.59397 5.01585 8.0746 5.26789 8.49701C5.51994 8.91943 5.87736 9.26914 6.30518 9.51191C6.73299 9.75468 7.21651 9.88219 7.70841 9.88194V9.85416Z"/>
      <path d="M16.9652 9.33334C16.9737 9.49295 16.9737 9.65289 16.9652 9.8125C17.0985 9.83363 17.2331 9.84523 17.368 9.84723H17.4999C17.9897 9.82111 18.4643 9.66864 18.8776 9.40464C19.2909 9.14065 19.6288 8.77413 19.8585 8.34078C20.0881 7.90743 20.2016 7.422 20.1879 6.93176C20.1742 6.44153 20.0338 5.96318 19.7804 5.54331C19.527 5.12343 19.1692 4.77633 18.7418 4.53579C18.3144 4.29525 17.832 4.16948 17.3416 4.17071C16.8511 4.17194 16.3694 4.30014 15.9432 4.54283C15.517 4.78551 15.161 5.13441 14.9097 5.55556C15.5382 5.96593 16.055 6.52591 16.4138 7.18526C16.7726 7.84461 16.962 8.58271 16.9652 9.33334Z"/>
      <path d="M12.4098 12.4444C14.1242 12.4444 15.514 11.0547 15.514 9.34028C15.514 7.6259 14.1242 6.23611 12.4098 6.23611C10.6954 6.23611 9.30566 7.6259 9.30566 9.34028C9.30566 11.0547 10.6954 12.4444 12.4098 12.4444Z"/>
      <path d="M12.5764 14.0972C11.6695 14.0606 10.7646 14.2078 9.91605 14.5301C9.06752 14.8523 8.29295 15.3429 7.63894 15.9722L7.46533 16.1667V20.5625C7.46804 20.7057 7.49893 20.8469 7.55624 20.9782C7.61355 21.1094 7.69616 21.2281 7.79934 21.3274C7.90252 21.4267 8.02426 21.5047 8.1576 21.557C8.29093 21.6092 8.43326 21.6347 8.57644 21.6319H16.5556C16.6988 21.6347 16.8411 21.6092 16.9745 21.557C17.1078 21.5047 17.2295 21.4267 17.3327 21.3274C17.4359 21.2281 17.5185 21.1094 17.5758 20.9782C17.6331 20.8469 17.664 20.7057 17.6667 20.5625V16.1806L17.5001 15.9722C16.8503 15.3409 16.0784 14.849 15.2318 14.5266C14.3851 14.2041 13.4816 14.058 12.5764 14.0972Z"/>
    </symbol>
    <symbol id="icon-clinic_board" viewBox="0 0 24 24">
      <path fill-rule="evenodd" clip-rule="evenodd" d="M10 2C9.60218 2 9.22064 2.15804 8.93934 2.43934C8.65804 2.72064 8.5 3.10218 8.5 3.5H6.5C6.10218 3.5 5.72064 3.65804 5.43934 3.93934C5.15804 4.22064 5 4.60218 5 5V20.5C5 20.8978 5.15804 21.2794 5.43934 21.5607C5.72064 21.842 6.10218 22 6.5 22H17.5C17.8978 22 18.2794 21.842 18.5607 21.5607C18.842 21.2794 19 20.8978 19 20.5V5C19 4.60218 18.842 4.22064 18.5607 3.93934C18.2794 3.65804 17.8978 3.5 17.5 3.5H15.5C15.5 3.10218 15.342 2.72064 15.0607 2.43934C14.7794 2.15804 14.3978 2 14 2H10ZM9.5 3.5C9.5 3.36739 9.55268 3.24021 9.64645 3.14645C9.74021 3.05268 9.86739 3 10 3H14C14.1326 3 14.2598 3.05268 14.3536 3.14645C14.4473 3.24021 14.5 3.36739 14.5 3.5V4.5C14.5 4.63261 14.4473 4.75979 14.3536 4.85355C14.2598 4.94732 14.1326 5 14 5H10C9.86739 5 9.74021 4.94732 9.64645 4.85355C9.55268 4.75979 9.5 4.63261 9.5 4.5V3.5ZM9.5 7.5V9H8V10H9.5V11.5H10.5V10H12V9H10.5V7.5H9.5ZM8.5 13C8.36739 13 8.24021 13.0527 8.14645 13.1464C8.05268 13.2402 8 13.3674 8 13.5C8 13.6326 8.05268 13.7598 8.14645 13.8536C8.24021 13.9473 8.36739 14 8.5 14H15.5C15.6326 14 15.7598 13.9473 15.8536 13.8536C15.9473 13.7598 16 13.6326 16 13.5C16 13.3674 15.9473 13.2402 15.8536 13.1464C15.7598 13.0527 15.6326 13 15.5 13H8.5ZM8 16C8 15.8674 8.05268 15.7402 8.14645 15.6464C8.24021 15.5527 8.36739 15.5 8.5 15.5H15.5C15.6326 15.5 15.7598 15.5527 15.8536 15.6464C15.9473 15.7402 16 15.8674 16 16C16 16.1326 15.9473 16.2598 15.8536 16.3536C15.7598 16.4473 15.6326 16.5 15.5 16.5H8.5C8.36739 16.5 8.24021 16.4473 8.14645 16.3536C8.05268 16.2598 8 16.1326 8 16ZM8.5 18C8.36739 18 8.24021 18.0527 8.14645 18.1464C8.05268 18.2402 8 18.3674 8 18.5C8 18.6326 8.05268 18.7598 8.14645 18.8536C8.24021 18.9473 8.36739 19 8.5 19H15.5C15.6326 19 15.7598 18.9473 15.8536 18.8536C15.9473 18.7598 16 18.6326 16 18.5C16 18.3674 15.9473 18.2402 15.8536 18.1464C15.7598 18.0527 15.6326 18 15.5 18H8.5Z"/>
    </symbol>
    <symbol id="icon-logout" viewBox="0 0 24 24">
      <path fill-rule="evenodd" clip-rule="evenodd" d="M6 3C5.20435 3 4.44129 3.31607 3.87868 3.87868C3.31607 4.44129 3 5.20435 3 6V18C3 18.7956 3.31607 19.5587 3.87868 20.1213C4.44129 20.6839 5.20435 21 6 21H10C10.7956 21 11.5587 20.6839 12.1213 20.1213C12.6839 19.5587 13 18.7956 13 18V13H17.586L15.293 15.293C15.1108 15.4816 15.01 15.7342 15.0123 15.9964C15.0146 16.2586 15.1198 16.5094 15.3052 16.6948C15.4906 16.8802 15.7414 16.9854 16.0036 16.9877C16.2658 16.99 16.5184 16.8892 16.707 16.707L20.707 12.707C20.8945 12.5195 20.9998 12.2652 20.9998 12C20.9998 11.7348 20.8945 11.4805 20.707 11.293L16.707 7.293C16.6148 7.19749 16.5044 7.12131 16.3824 7.0689C16.2604 7.01649 16.1292 6.9889 15.9964 6.98775C15.8636 6.9866 15.7319 7.0119 15.609 7.06218C15.4861 7.11246 15.3745 7.18671 15.2806 7.2806C15.1867 7.3745 15.1125 7.48615 15.0622 7.60905C15.0119 7.73194 14.9866 7.86362 14.9877 7.9964C14.9889 8.12918 15.0165 8.2604 15.0689 8.3824C15.1213 8.50441 15.1975 8.61475 15.293 8.707L17.586 11H13V6C13 5.20435 12.6839 4.44129 12.1213 3.87868C11.5587 3.31607 10.7956 3 10 3H6ZM13 11H8C7.73478 11 7.48043 11.1054 7.29289 11.2929C7.10536 11.4804 7 11.7348 7 12C7 12.2652 7.10536 12.5196 7.29289 12.7071C7.48043 12.8946 7.73478 13 8 13H13V11Z"/>
    </symbol>
    <symbol id="icon-chat" viewBox="0 0 44 44">
      <path d="M22.3281 0.138977C16.6197 0.145443 11.1469 2.41598 7.11037 6.45248C3.07388 10.489 0.803341 15.9618 0.796875 21.6702V39.13C0.798135 40.2095 1.22753 41.2444 1.99085 42.0076C2.75417 42.7709 3.78909 43.2003 4.86856 43.2015H22.3281C28.0386 43.2015 33.5151 40.933 37.553 36.8951C41.5909 32.8572 43.8594 27.3807 43.8594 21.6702C43.8594 15.9598 41.5909 10.4832 37.553 6.44533C33.5151 2.40744 28.0386 0.138977 22.3281 0.138977ZM22.3281 38.2327H5.76562V21.6702C5.76562 18.3945 6.737 15.1923 8.55691 12.4686C10.3768 9.74491 12.9635 7.62205 15.9899 6.36847C19.0163 5.1149 22.3465 4.7869 25.5593 5.42597C28.7721 6.06504 31.7233 7.64246 34.0396 9.95877C36.3559 12.2751 37.9333 15.2262 38.5724 18.439C39.2114 21.6519 38.8835 24.982 37.6299 28.0084C36.3763 31.0348 34.2534 33.6215 31.5298 35.4414C28.8061 37.2614 25.6039 38.2327 22.3281 38.2327ZM15.7029 22.4994C15.7029 23.1545 15.5086 23.795 15.1447 24.3397C14.7807 24.8845 14.2633 25.309 13.6581 25.5597C13.0528 25.8105 12.3867 25.8761 11.7442 25.7482C11.1016 25.6204 10.5114 25.3049 10.0481 24.8417C9.58487 24.3784 9.26938 23.7882 9.14157 23.1456C9.01375 22.5031 9.07935 21.837 9.33007 21.2317C9.58078 20.6265 10.0054 20.1091 10.5501 19.7451C11.0948 19.3812 11.7353 19.1869 12.3904 19.1869C13.2686 19.1879 14.1106 19.5372 14.7316 20.1582C15.3526 20.7792 15.7019 21.6212 15.7029 22.4994ZM25.6404 22.4994C25.6404 23.1545 25.4461 23.795 25.0822 24.3397C24.7182 24.8845 24.2008 25.309 23.5956 25.5597C22.9903 25.8105 22.3242 25.8761 21.6817 25.7482C21.0391 25.6204 20.4489 25.3049 19.9856 24.8417C19.5224 24.3784 19.2069 23.7882 19.0791 23.1456C18.9513 22.5031 19.0169 21.837 19.2676 21.2317C19.5183 20.6265 19.9429 20.1091 20.4876 19.7451C21.0323 19.3812 21.6728 19.1869 22.3279 19.1869C23.2061 19.1879 24.0481 19.5372 24.6691 20.1582C25.2901 20.7792 25.6394 21.6212 25.6404 22.4994ZM35.5779 22.4994C35.5779 23.1545 35.3836 23.795 35.0197 24.3397C34.6557 24.8845 34.1383 25.309 33.5331 25.5597C32.9278 25.8105 32.2617 25.8761 31.6192 25.7482C30.9766 25.6204 30.3864 25.3049 29.9231 24.8417C29.4599 24.3784 29.1444 23.7882 29.0166 23.1456C28.8888 22.5031 28.9544 21.837 29.2051 21.2317C29.4558 20.6265 29.8804 20.1091 30.4251 19.7451C30.9698 19.3812 31.6103 19.1869 32.2654 19.1869C33.1436 19.1879 33.9856 19.5372 34.6066 20.1582C35.2276 20.7792 35.5769 21.6212 35.5779 22.4994Z" />
    </symbol>
    <symbol id="icon-previous" viewBox="0 0 24 24">
      <path d="M15.707 17.293l-5.293-5.293 5.293-5.293c0.391-0.391 0.391-1.024 0-1.414s-1.024-0.391-1.414 0l-6 6c-0.391 0.391-0.391 1.024 0 1.414l6 6c0.391 0.391 1.024 0.391 1.414 0s0.391-1.024 0-1.414z"></path>
    </symbol>
    <symbol id="icon-next" viewBox="0 0 24 24">
      <path d="M9.707 18.707l6-6c0.391-0.391 0.391-1.024 0-1.414l-6-6c-0.391-0.391-1.024-0.391-1.414 0s-0.391 1.024 0 1.414l5.293 5.293-5.293 5.293c-0.391 0.391-0.391 1.024 0 1.414s1.024 0.391 1.414 0z"></path>
    </symbol>

    <svg  id='icon-save' viewBox="0 0 32 32">
      <path d="M6.66667 28H25.3333C26.0406 28 26.7189 27.719 27.219 27.219C27.719 26.7189 28 26.0406 28 25.3333V10.6667C28.001 10.4912 27.9674 10.3172 27.901 10.1548C27.8347 9.99234 27.7369 9.84459 27.6133 9.72L22.28 4.38667C22.1554 4.26309 22.0077 4.16532 21.8452 4.09897C21.6828 4.03262 21.5088 3.99898 21.3333 4H6.66667C5.95942 4 5.28115 4.28095 4.78105 4.78105C4.28095 5.28114 4 5.95942 4 6.66667V25.3333C4 26.0406 4.28095 26.7189 4.78105 27.219C5.28115 27.719 5.95942 28 6.66667 28ZM20 25.3333H12V18.6667H20V25.3333ZM17.3333 9.33333H14.6667V6.66667H17.3333V9.33333ZM6.66667 6.66667H9.33333V12H20V6.66667H20.7867L25.3333 11.2133V25.3333H22.6667V18.6667C22.6667 17.9594 22.3857 17.2811 21.8856 16.781C21.3855 16.281 20.7072 16 20 16H12C11.2928 16 10.6145 16.281 10.1144 16.781C9.61428 17.2811 9.33333 17.9594 9.33333 18.6667V25.3333H6.66667V6.66667Z"/>
    </svg>
    <symbol id='icon-chatSend' viewBox="0 0 26 26">
      <path d="M22.5142 3.48562C22.4045 3.37648 22.266 3.30092 22.1149 3.26781C21.9637 3.23471 21.8063 3.24544 21.6611 3.29875L3.78607 9.79875C3.63191 9.85722 3.49919 9.96121 3.40553 10.0969C3.31188 10.2326 3.26172 10.3936 3.26172 10.5584C3.26172 10.7233 3.31188 10.8843 3.40553 11.02C3.49919 11.1557 3.63191 11.2596 3.78607 11.3181L11.5861 14.4381L14.7061 22.2381C14.7647 22.3855 14.8652 22.5125 14.9951 22.6035C15.125 22.6944 15.2788 22.7454 15.4373 22.75C15.6015 22.7466 15.7608 22.6936 15.8943 22.5979C16.0277 22.5021 16.129 22.3682 16.1848 22.2137L22.6848 4.33875C22.7402 4.195 22.7535 4.03847 22.7233 3.88742C22.6931 3.73637 22.6206 3.59702 22.5142 3.48562ZM15.4373 19.6625L13.1704 13.975L17.0623 10.0831L15.9167 8.9375L11.9923 12.8619L6.33732 10.5625L20.5804 5.41937L15.4373 19.6625Z"/>
    </symbol>
    <symbol id='icon-close' viewBox="0 0 24 24" >
      <path d="M12 1.5C6.20156 1.5 1.5 6.20156 1.5 12C1.5 17.7984 6.20156 22.5 12 22.5C17.7984 22.5 22.5 17.7984 22.5 12C22.5 6.20156 17.7984 1.5 12 1.5ZM15.8766 15.9891L14.3297 15.982L12 13.2047L9.67266 15.9797L8.12344 15.9867C8.02031 15.9867 7.93594 15.9047 7.93594 15.7992C7.93594 15.7547 7.95234 15.7125 7.98047 15.6773L11.0297 12.0445L7.98047 8.41406C7.95215 8.37971 7.93643 8.3367 7.93594 8.29219C7.93594 8.18906 8.02031 8.10469 8.12344 8.10469L9.67266 8.11172L12 10.8891L14.3273 8.11406L15.8742 8.10703C15.9773 8.10703 16.0617 8.18906 16.0617 8.29453C16.0617 8.33906 16.0453 8.38125 16.0172 8.41641L12.9727 12.0469L16.0195 15.6797C16.0477 15.7148 16.0641 15.757 16.0641 15.8016C16.0641 15.9047 15.9797 15.9891 15.8766 15.9891Z"/>
    </symbol>
    <symbol id='icon-play-circle' viewBox="0 0 24 24">
      <path d="M12 22.5C9.21523 22.5 6.54451 21.3938 4.57538 19.4246C2.60625 17.4555 1.5 14.7848 1.5 12C1.5 9.21523 2.60625 6.54451 4.57538 4.57538C6.54451 2.60625 9.21523 1.5 12 1.5C14.7848 1.5 17.4555 2.60625 19.4246 4.57538C21.3938 6.54451 22.5 9.21523 22.5 12C22.5 14.7848 21.3938 17.4555 19.4246 19.4246C17.4555 21.3938 14.7848 22.5 12 22.5ZM12 24C15.1826 24 18.2348 22.7357 20.4853 20.4853C22.7357 18.2348 24 15.1826 24 12C24 8.8174 22.7357 5.76516 20.4853 3.51472C18.2348 1.26428 15.1826 0 12 0C8.8174 0 5.76516 1.26428 3.51472 3.51472C1.26428 5.76516 0 8.8174 0 12C0 15.1826 1.26428 18.2348 3.51472 20.4853C5.76516 22.7357 8.8174 24 12 24Z"/>
      <path d="M9.4065 7.58248C9.52918 7.51931 9.6669 7.49121 9.80452 7.50126C9.94214 7.51132 10.0743 7.55915 10.1865 7.63948L15.4365 11.3895C15.5337 11.4589 15.613 11.5505 15.6676 11.6566C15.7223 11.7628 15.7509 11.8805 15.7509 12C15.7509 12.1194 15.7223 12.2371 15.6676 12.3433C15.613 12.4495 15.5337 12.5411 15.4365 12.6105L10.1865 16.3605C10.0743 16.4407 9.94224 16.4885 9.80469 16.4986C9.66715 16.5086 9.52949 16.4806 9.40686 16.4175C9.28422 16.3544 9.18136 16.2587 9.10958 16.1409C9.03781 16.0232 8.99989 15.8879 9 15.75V8.24998C8.99986 8.1121 9.03772 7.97685 9.10943 7.8591C9.18115 7.74134 9.28393 7.64563 9.4065 7.58248Z"/>
    </symbol>
    <symbol id="icon-history" viewBox="0 0 24 24">
      <path d="M12 8.016h1.5v4.219l3.516 2.109-0.75 1.219-4.266-2.578v-4.969zM12.984 3q3.703 0 6.352 2.625t2.648 6.375-2.648 6.375-6.352 2.625q-1.547 0-3.398-0.773t-2.93-1.852l1.406-1.453q2.063 2.063 4.922 2.063 2.906 0 4.969-2.039t2.063-4.945-2.063-4.945-4.969-2.039-4.945 2.039-2.039 4.945h3l-4.031 4.031-0.094-0.141-3.891-3.891h3q0-3.75 2.648-6.375t6.352-2.625z"></path>
    </symbol>
    <symbol id='icon-upload2' viewBox="0 0 50 50">
      <path d="M1.5625 30.9376C1.9769 30.9376 2.37433 31.1022 2.66735 31.3953C2.96038 31.6883 3.125 32.0857 3.125 32.5001V40.3126C3.125 41.1414 3.45424 41.9363 4.04029 42.5223C4.62634 43.1084 5.4212 43.4376 6.25 43.4376H43.75C44.5788 43.4376 45.3737 43.1084 45.9597 42.5223C46.5458 41.9363 46.875 41.1414 46.875 40.3126V32.5001C46.875 32.0857 47.0396 31.6883 47.3326 31.3953C47.6257 31.1022 48.0231 30.9376 48.4375 30.9376C48.8519 30.9376 49.2493 31.1022 49.5424 31.3953C49.8354 31.6883 50 32.0857 50 32.5001V40.3126C50 41.9702 49.3415 43.5599 48.1694 44.732C46.9973 45.9041 45.4076 46.5626 43.75 46.5626H6.25C4.5924 46.5626 3.00269 45.9041 1.83058 44.732C0.65848 43.5599 0 41.9702 0 40.3126V32.5001C0 32.0857 0.16462 31.6883 0.457646 31.3953C0.750671 31.1022 1.1481 30.9376 1.5625 30.9376Z"/>
      <path d="M23.8938 3.58136C24.0389 3.43585 24.2113 3.3204 24.4012 3.24163C24.591 3.16286 24.7945 3.12231 25 3.12231C25.2055 3.12231 25.409 3.16286 25.5989 3.24163C25.7887 3.3204 25.9611 3.43585 26.1063 3.58136L35.4813 12.9564C35.7747 13.2498 35.9395 13.6477 35.9395 14.0626C35.9395 14.4775 35.7747 14.8755 35.4813 15.1689C35.1879 15.4623 34.7899 15.6271 34.375 15.6271C33.9601 15.6271 33.5622 15.4623 33.2688 15.1689L26.5625 8.45948V35.9376C26.5625 36.352 26.3979 36.7494 26.1049 37.0425C25.8119 37.3355 25.4144 37.5001 25 37.5001C24.5856 37.5001 24.1882 37.3355 23.8952 37.0425C23.6021 36.7494 23.4375 36.352 23.4375 35.9376V8.45948L16.7313 15.1689C16.586 15.3141 16.4135 15.4294 16.2237 15.508C16.0339 15.5866 15.8305 15.6271 15.625 15.6271C15.4196 15.6271 15.2161 15.5866 15.0263 15.508C14.8365 15.4294 14.664 15.3141 14.5188 15.1689C14.3735 15.0236 14.2583 14.8511 14.1796 14.6613C14.101 14.4715 14.0605 14.2681 14.0605 14.0626C14.0605 13.8572 14.101 13.6537 14.1796 13.4639C14.2583 13.2741 14.3735 13.1016 14.5188 12.9564L23.8938 3.58136Z"/>
    </symbol>
    <symbol id="icon-upload" viewBox="0 0 24 24">
      <path d="M5.016 18h13.969v2.016h-13.969v-2.016zM9 15.984v-6h-3.984l6.984-6.984 6.984 6.984h-3.984v6h-6z"></path>
    </symbol>
    <symbol id='icon-audio' viewBox="0 0 28 28">
      <path d="M18.3333 6.02999C19.9831 6.69726 21.3958 7.84237 22.3901 9.31833C23.3843 10.7943 23.9148 12.5337 23.9133 14.3133C23.9147 16.0928 23.3843 17.8322 22.39 19.308C21.3957 20.7838 19.9831 21.9288 18.3333 22.596V24.4593C20.4686 23.7561 22.3272 22.3966 23.6441 20.5746C24.961 18.7527 25.6688 16.5614 25.6667 14.3133C25.6667 9.58065 22.594 5.56332 18.3333 4.16132V6.02999ZM18.3333 10.4293C18.8948 10.9088 19.3453 11.5045 19.6538 12.1752C19.9623 12.8459 20.1214 13.5757 20.12 14.314C20.1214 15.0522 19.9624 15.7819 19.6539 16.4525C19.3454 17.1232 18.8948 17.7187 18.3333 18.198V20.094C20.3267 18.94 21.6667 16.7833 21.6667 14.314C21.6671 13.1428 21.3593 11.9921 20.7742 10.9775C20.1891 9.9629 19.3473 9.12018 18.3333 8.53399V10.4293ZM3 19.6527H8.33333L14.3333 26.996C15 27.956 16.56 27.8833 17 26.7947V1.88665C16.4593 0.798652 15.0407 0.711319 14.3333 1.63199L8.33333 9.00065H3C1.29267 9.00065 1 9.30799 1 10.9767V17.6513C1 19.2793 1.33333 19.6527 3 19.6527Z"/>
    </symbol>
    <symbol id="icon-audio2" viewBox="0 0 32 32">
      <path d="M22.485 25.985c-0.384 0-0.768-0.146-1.061-0.439-0.586-0.586-0.586-1.535 0-2.121 4.094-4.094 4.094-10.755 0-14.849-0.586-0.586-0.586-1.536 0-2.121s1.536-0.586 2.121 0c2.55 2.55 3.954 5.94 3.954 9.546s-1.404 6.996-3.954 9.546c-0.293 0.293-0.677 0.439-1.061 0.439v0zM17.157 23.157c-0.384 0-0.768-0.146-1.061-0.439-0.586-0.586-0.586-1.535 0-2.121 2.534-2.534 2.534-6.658 0-9.192-0.586-0.586-0.586-1.536 0-2.121s1.535-0.586 2.121 0c3.704 3.704 3.704 9.731 0 13.435-0.293 0.293-0.677 0.439-1.061 0.439z"></path>
      <path d="M13 30c-0.26 0-0.516-0.102-0.707-0.293l-7.707-7.707h-3.586c-0.552 0-1-0.448-1-1v-10c0-0.552 0.448-1 1-1h3.586l7.707-7.707c0.286-0.286 0.716-0.372 1.090-0.217s0.617 0.519 0.617 0.924v26c0 0.404-0.244 0.769-0.617 0.924-0.124 0.051-0.254 0.076-0.383 0.076z"></path>
    </symbol>
    <symbol id='icon-website' viewBox="0 0 28 28">
      <path d="M0 12.5767V12.5399C0.32636 8.27402 1.84937 5.07459 4.49651 3.05196C7.10739 0.992551 9.93584 -0.000376605 13.0181 -0.000376605C16.2455 -0.0371517 19.2552 1.0661 21.9386 3.27261C24.6583 5.44234 26 8.67855 26 12.8709V13.1283C26 17.3575 24.6583 20.5201 21.9386 22.6899C19.219 24.8964 16.2092 25.9996 12.9819 25.9996H12.8368C9.68201 25.9628 6.78103 24.8596 4.09763 22.6531C1.41423 20.4834 0.0362622 17.1368 0 12.5767ZM12.2204 6.80302V0.992551H11.3501C11.1688 1.2132 11.0237 1.47063 10.8787 1.69128C10.7336 1.91193 10.5886 2.13258 10.4435 2.39001C10.2985 2.61066 10.1172 2.90486 10.0084 3.12551C9.86332 3.34616 9.75453 3.56681 9.64575 3.82423C9.42817 4.19199 9.24686 4.55974 9.10181 4.89071C8.9205 5.22169 8.77545 5.55266 8.66667 5.84687C8.88424 5.99397 9.13807 6.17784 9.42817 6.28817C9.75453 6.39849 10.0809 6.50882 10.4073 6.58237C10.7699 6.65592 11.0962 6.69269 11.3863 6.72947C11.7127 6.76624 12.0028 6.80302 12.2204 6.80302ZM13.7434 0.992551V6.76624C13.9247 6.76624 14.1423 6.80302 14.3598 6.76624C14.5774 6.76624 14.8312 6.72947 15.0488 6.69269C15.4477 6.61914 15.9191 6.50882 16.2817 6.39849C16.6806 6.25139 17.0432 6.06752 17.2971 5.84687C16.8619 4.78039 16.3905 3.93456 15.9191 3.12551C15.4477 2.31646 14.9038 1.61773 14.3236 1.02933V0.992551H13.7434ZM9.82706 1.32353V1.28675C9.57322 1.39708 9.31939 1.58095 9.02929 1.69128C8.77545 1.8016 8.44909 1.9487 8.19526 2.0958C7.68759 2.35323 7.17992 2.64743 6.67225 2.97841C6.20084 3.30938 5.72943 3.67713 5.33054 4.04489C5.47559 4.19199 5.6569 4.33909 5.80195 4.44941C5.947 4.55974 6.12831 4.70684 6.30962 4.85394C6.45467 4.92749 6.63598 5.03781 6.81729 5.18491C6.99861 5.29524 7.21618 5.44234 7.43375 5.58944C7.72385 4.92749 8.01395 4.22876 8.37657 3.60358C8.73919 2.94163 9.13807 2.31646 9.53696 1.76483C9.57322 1.69128 9.60948 1.61773 9.68201 1.54418C9.71827 1.5074 9.75453 1.39708 9.82706 1.32353ZM20.9233 4.04489V4.00811C20.0167 3.30938 19.219 2.72098 18.4212 2.35323C17.6234 1.98548 16.8257 1.61773 16.1004 1.32353C16.6806 1.91193 17.1883 2.64743 17.5146 3.34616C17.8773 4.08166 18.2399 4.85394 18.53 5.58944C18.675 5.51589 18.8563 5.44234 19.0739 5.29524C19.2552 5.18491 19.5091 5.07459 19.7266 4.96426C19.9442 4.81716 20.1255 4.67006 20.3431 4.52296C20.5607 4.33909 20.7782 4.19199 20.9233 4.04489ZM20.3068 12.2457H24.477C24.477 10.8851 24.1869 9.59793 23.643 8.27402C23.1353 6.98689 22.41 5.92042 21.5035 5.00104V4.96426C21.3222 5.25846 21.0683 5.51589 20.8145 5.69977C20.5244 5.88364 20.2706 6.03074 19.9805 6.17784C19.7992 6.28817 19.6179 6.43527 19.4365 6.50882C19.2552 6.61914 19.0014 6.69269 18.8201 6.80302C18.9651 7.09722 19.1102 7.4282 19.2552 7.7224C19.364 8.05337 19.5453 8.42112 19.6179 8.7521C19.8354 9.3405 19.9805 9.96568 20.1255 10.5909C20.2343 11.1425 20.3068 11.7309 20.3068 12.2457ZM7.17992 6.80302V6.76624C6.88982 6.61914 6.56346 6.50882 6.30962 6.36172C6.05579 6.17784 5.80195 5.99397 5.58438 5.84687C5.36681 5.73654 5.14923 5.58944 4.96792 5.44234C4.78661 5.29524 4.64156 5.14814 4.49651 5.00104C3.5537 5.92042 2.86471 6.95012 2.42957 8.1637C1.95816 9.37728 1.6318 10.738 1.48675 12.209H5.947C5.947 11.1793 6.09205 10.1863 6.34589 9.1934C6.56346 8.1637 6.88982 7.39142 7.17992 6.80302ZM12.2204 12.209V7.97982C11.9303 8.0166 11.5676 8.0166 11.2413 7.97982C10.8787 7.94305 10.516 7.83272 10.1897 7.7224C9.89958 7.64885 9.53696 7.5753 9.24686 7.46497C8.9205 7.39142 8.59414 7.24432 8.34031 7.09722C8.12273 7.46497 7.94142 7.90627 7.79637 8.38435C7.61506 8.82565 7.50628 9.30373 7.39749 9.74503C7.32497 10.1863 7.2887 10.6644 7.25244 11.0689C7.21618 11.4735 7.17992 11.878 7.17992 12.209H12.2204ZM13.7434 8.05337V12.209H19.1102C19.1102 11.9883 19.1102 11.7309 19.0739 11.4367C19.0014 11.1793 18.9651 10.8483 18.9289 10.5541C18.8201 10.1128 18.7113 9.6347 18.5662 9.1934C18.4212 8.78887 18.2761 8.38435 18.0948 8.05337C18.0223 7.8695 17.9498 7.64885 17.8773 7.50175C17.7685 7.31787 17.6597 7.20754 17.5872 7.09722C17.1883 7.39142 16.6444 7.5753 15.9916 7.7224C15.3752 7.8695 14.6499 8.0166 13.9972 8.05337H13.7434ZM5.947 13.4225H1.48675C1.48675 14.0477 1.59554 14.7464 1.77685 15.5923C1.95816 16.4749 2.32078 17.2839 2.71967 18.1665C2.90098 18.6078 3.11855 19.0491 3.33612 19.4904C3.58996 19.895 3.88006 20.3363 4.17015 20.7408C4.38773 20.5937 4.6053 20.4834 4.78661 20.373C5.00418 20.2627 5.25802 20.1156 5.47559 20.0053C5.72943 19.895 5.98326 19.7846 6.27336 19.6375C6.5272 19.5272 6.85356 19.3801 7.17992 19.233C6.88982 18.3136 6.56346 17.431 6.34589 16.4381C6.09205 15.4819 5.947 14.5258 5.947 13.4593V13.4225ZM12.2204 17.7252V13.4225H7.17992C7.17992 13.7167 7.21618 14.158 7.2887 14.5993C7.32497 15.0406 7.43375 15.5187 7.50628 15.9968C7.65132 16.5116 7.76011 17.0265 7.90516 17.4678C8.05021 17.9091 8.19526 18.2769 8.34031 18.6078C8.99303 18.3504 9.64575 18.1665 10.0809 18.0562C10.5523 17.9091 10.9874 17.7988 11.4226 17.762H11.8215C11.9665 17.7252 12.1116 17.7252 12.2204 17.7252ZM13.7434 13.4225V17.6884C13.9972 17.7252 14.2873 17.762 14.5774 17.7988C14.9038 17.8356 15.3026 17.9091 15.629 17.9827L16.1729 18.093C16.3543 18.1665 16.5718 18.2033 16.7531 18.2401C16.9707 18.3136 17.1883 18.3504 17.4059 18.424C17.5872 18.4975 17.7685 18.5343 17.9135 18.6078C18.3849 17.3942 18.675 16.4013 18.8563 15.5555C19.0377 14.7464 19.1102 14.0477 19.1102 13.4593V13.4225H13.7434ZM24.477 13.4593V13.4225H20.3068V13.6432C20.2706 14.3419 20.1618 15.151 20.0167 15.9968C19.8717 16.8058 19.5453 17.762 19.1102 18.9388C19.6904 19.233 20.2343 19.5272 20.6695 19.8214C21.1046 20.1156 21.5035 20.4466 21.7936 20.7408C22.41 20.1156 22.954 19.2698 23.4254 18.1665C23.8968 17.1 24.2232 15.9968 24.4045 14.82C24.4407 14.5993 24.4407 14.3787 24.477 14.158V13.4593ZM12.2204 24.6389V18.902C11.3138 19.0491 10.5523 19.233 9.97211 19.3801C9.39191 19.5272 8.95676 19.6743 8.66667 19.8214C8.88424 20.373 9.10181 20.8511 9.31939 21.2924C9.53696 21.6969 9.79079 22.1382 10.0084 22.506C10.0809 22.6531 10.2259 22.8002 10.3347 22.9841C10.4435 23.1312 10.516 23.315 10.6248 23.4621C10.7336 23.646 10.8424 23.8667 10.9512 24.0873C11.0962 24.2712 11.205 24.4918 11.3501 24.6389H12.2204ZM13.7434 24.6389H14.5774C14.9038 24.3815 15.2301 24.0138 15.484 23.6092C15.7741 23.2047 16.1004 22.7266 16.318 22.3221C16.5718 21.844 16.8257 21.4027 17.0432 20.9614C17.2608 20.5201 17.4421 20.1156 17.5872 19.8214C17.1883 19.6743 16.6444 19.5272 16.1004 19.3801C15.5565 19.233 14.795 19.0859 13.7434 18.9388V24.6389ZM20.9233 21.6234V21.5866C20.8508 21.4763 20.7057 21.3292 20.5969 21.2189C20.4881 21.1085 20.3068 20.9614 20.1255 20.8511C19.9805 20.7408 19.7992 20.6305 19.5816 20.5201C19.364 20.4098 19.0739 20.2627 18.8201 20.1156C18.675 20.4098 18.4212 20.9247 18.0586 21.6234C17.7322 22.3221 17.152 23.1679 16.4268 24.0873C17.3333 23.9402 18.1311 23.6092 18.8563 23.1679C19.6541 22.7634 20.3431 22.2118 20.9233 21.6234ZM7.43375 20.4466V20.4098C7.17992 20.5569 6.78103 20.7408 6.38215 20.9247C5.947 21.1085 5.47559 21.3292 5.04045 21.6234C5.29428 21.844 5.54812 22.0647 5.76569 22.2118C5.98326 22.3957 6.2371 22.5428 6.45467 22.6899C6.85356 22.9473 7.32497 23.2047 7.79637 23.4254C8.26778 23.646 8.84798 23.8667 9.57322 24.0873C9.31939 23.7931 9.13807 23.4254 8.95676 23.1312C8.77545 22.837 8.55788 22.5428 8.37657 22.2486C8.19526 21.9544 8.05021 21.6234 7.90516 21.3292C7.72385 21.035 7.5788 20.7408 7.43375 20.4466Z"/>
    </symbol>
    <symbol id='icon-name' width="24" height="24" viewBox="0 0 24 24" fill="none" xmlns="http://www.w3.org/2000/svg">
      <path d="M18.9998 2H8.99979C7.89679 2 6.99979 2.897 6.99979 4V9.586L2.29279 14.293C2.15298 14.4329 2.05777 14.611 2.0192 14.805C1.98064 14.9989 2.00044 15.2 2.07611 15.3827C2.15178 15.5654 2.27992 15.7215 2.44433 15.8314C2.60874 15.9413 2.80204 16 2.99979 16V21C2.99979 21.2652 3.10514 21.5196 3.29268 21.7071C3.48022 21.8946 3.73457 22 3.99979 22H19.9998C20.265 22 20.5194 21.8946 20.7069 21.7071C20.8944 21.5196 20.9998 21.2652 20.9998 21V4C20.9998 2.897 20.1028 2 18.9998 2ZM10.9998 20H4.99979V14.414L7.99979 11.414L10.9998 14.414V20ZM18.9998 20H12.9998V16C13.1978 16.0004 13.3914 15.942 13.5561 15.8322C13.7208 15.7224 13.8492 15.5662 13.925 15.3833C14.0007 15.2004 14.0204 14.9991 13.9816 14.805C13.9427 14.6109 13.8471 14.4327 13.7068 14.293L8.99979 9.586V4H18.9998V20Z" fill="white"/>
      <path d="M11 6H13V8H11V6ZM15 6H17V8H15V6ZM15 10.031H17V12H15V10.031ZM15 14H17V16H15V14ZM7 15H9V17H7V15Z" fill="white"/>
    </symbol>
    <symbol id='icon-provider' width="24" height="24" viewBox="0 0 24 24" fill="none" xmlns="http://www.w3.org/2000/svg">
      <path d="M18 2H6C4.897 2 4 2.897 4 4V21C4 21.2652 4.10536 21.5196 4.29289 21.7071C4.48043 21.8946 4.73478 22 5 22H19C19.2652 22 19.5196 21.8946 19.7071 21.7071C19.8946 21.5196 20 21.2652 20 21V4C20 2.897 19.103 2 18 2ZM18 20H6V4H18V20Z" fill="white"/>
      <path d="M8 6H11V8H8V6ZM13 6H16V8H13V6ZM8 10H11V12H8V10ZM13 10.031H16V12H13V10.031ZM8 14H11V16H8V14ZM13 14H16V16H13V14Z" fill="white"/>
    </symbol>
    <symbol id='icon-showPassword'  viewBox="0 0 24 24" fill="none" xmlns="http://www.w3.org/2000/svg">
      <path d="M21.257 10.962C21.731 11.582 21.731 12.419 21.257 13.038C19.764 14.987 16.182 19 12 19C7.81801 19 4.23601 14.987 2.74301 13.038C2.51239 12.7411 2.38721 12.3759 2.38721 12C2.38721 11.6241 2.51239 11.2589 2.74301 10.962C4.23601 9.013 7.81801 5 12 5C16.182 5 19.764 9.013 21.257 10.962V10.962Z" stroke="#8E8B8B" stroke-width="2" stroke-linecap="round" stroke-linejoin="round"/>
      <path d="M12 15C13.6569 15 15 13.6569 15 12C15 10.3431 13.6569 9 12 9C10.3431 9 9 10.3431 9 12C9 13.6569 10.3431 15 12 15Z" stroke="#8E8B8B" stroke-width="2" stroke-linecap="round" stroke-linejoin="round"/>
    </symbol>

    <symbol id='icon-hidePassword'  viewBox="0 0 24 24" fill="none" xmlns="http://www.w3.org/2000/svg">
      <path d="M6.87301 17.129C5.02801 15.819 3.56801 14.115 2.74301 13.039C2.51231 12.742 2.38708 12.3766 2.38708 12.0005C2.38708 11.6244 2.51231 11.259 2.74301 10.962C4.23601 9.013 7.81801 5 12 5C13.876 5 15.63 5.807 17.13 6.874" stroke="#8E8B8B" stroke-width="2" stroke-linecap="round" stroke-linejoin="round"/>
      <path d="M14.13 9.887C13.8523 9.60467 13.5214 9.38011 13.1565 9.22629C12.7916 9.07246 12.3998 8.99241 12.0038 8.99075C11.6078 8.98909 11.2154 9.06586 10.8492 9.21662C10.483 9.36738 10.1502 9.58916 9.87017 9.86915C9.59011 10.1491 9.36825 10.4818 9.21741 10.848C9.06656 11.2142 8.9897 11.6066 8.99126 12.0026C8.99283 12.3986 9.07279 12.7904 9.22653 13.1554C9.38027 13.5203 9.60475 13.8512 9.88701 14.129" stroke="#8E8B8B" stroke-width="2" stroke-linecap="round" stroke-linejoin="round"/>
      <path d="M4 20L20 4" stroke="#8E8B8B" stroke-width="2" stroke-linecap="round" stroke-linejoin="round"/>
      <path d="M10 18.704C10.6492 18.8972 11.3227 18.9969 12 19C16.182 19 19.764 14.987 21.257 13.038C21.4876 12.7407 21.6127 12.3751 21.6125 11.9988C21.6124 11.6226 21.4869 11.2571 21.256 10.96C20.7313 10.2755 20.1684 9.62112 19.57 9" stroke="#8E8B8B" stroke-width="2" stroke-linecap="round" stroke-linejoin="round"/>
      </symbol>


    <symbol id="icon-menu" viewBox="0 0 47 47">
      <path d="M15.6666 11.75C15.6666 12.7888 15.254 13.785 14.5195 14.5195C13.785 15.254 12.7887 15.6667 11.75 15.6667C10.7112 15.6667 9.715 15.254 8.98048 14.5195C8.24596 13.785 7.83331 12.7888 7.83331 11.75C7.83331 10.7112 8.24596 9.71503 8.98048 8.98051C9.715 8.24599 10.7112 7.83334 11.75 7.83334C12.7887 7.83334 13.785 8.24599 14.5195 8.98051C15.254 9.71503 15.6666 10.7112 15.6666 11.75Z"/>
      <path d="M15.6666 23.5C15.6666 24.5388 15.254 25.535 14.5195 26.2695C13.785 27.004 12.7887 27.4167 11.75 27.4167C10.7112 27.4167 9.715 27.004 8.98048 26.2695C8.24596 25.535 7.83331 24.5388 7.83331 23.5C7.83331 22.4612 8.24596 21.465 8.98048 20.7305C9.715 19.996 10.7112 19.5833 11.75 19.5833C12.7887 19.5833 13.785 19.996 14.5195 20.7305C15.254 21.465 15.6666 22.4612 15.6666 23.5Z"/>
      <path d="M11.75 39.1667C12.7887 39.1667 13.785 38.754 14.5195 38.0195C15.254 37.285 15.6666 36.2888 15.6666 35.25C15.6666 34.2112 15.254 33.215 14.5195 32.4805C13.785 31.746 12.7887 31.3333 11.75 31.3333C10.7112 31.3333 9.715 31.746 8.98048 32.4805C8.24596 33.215 7.83331 34.2112 7.83331 35.25C7.83331 36.2888 8.24596 37.285 8.98048 38.0195C9.715 38.754 10.7112 39.1667 11.75 39.1667Z"/>
      <path d="M27.4166 11.75C27.4166 12.7888 27.004 13.785 26.2695 14.5195C25.535 15.254 24.5387 15.6667 23.5 15.6667C22.4612 15.6667 21.465 15.254 20.7305 14.5195C19.996 13.785 19.5833 12.7888 19.5833 11.75C19.5833 10.7112 19.996 9.71503 20.7305 8.98051C21.465 8.24599 22.4612 7.83334 23.5 7.83334C24.5387 7.83334 25.535 8.24599 26.2695 8.98051C27.004 9.71503 27.4166 10.7112 27.4166 11.75Z"/>
      <path d="M23.5 27.4167C24.5387 27.4167 25.535 27.004 26.2695 26.2695C27.004 25.535 27.4166 24.5388 27.4166 23.5C27.4166 22.4612 27.004 21.465 26.2695 20.7305C25.535 19.996 24.5387 19.5833 23.5 19.5833C22.4612 19.5833 21.465 19.996 20.7305 20.7305C19.996 21.465 19.5833 22.4612 19.5833 23.5C19.5833 24.5388 19.996 25.535 20.7305 26.2695C21.465 27.004 22.4612 27.4167 23.5 27.4167Z"/>
      <path d="M27.4166 35.25C27.4166 36.2888 27.004 37.285 26.2695 38.0195C25.535 38.754 24.5387 39.1667 23.5 39.1667C22.4612 39.1667 21.465 38.754 20.7305 38.0195C19.996 37.285 19.5833 36.2888 19.5833 35.25C19.5833 34.2112 19.996 33.215 20.7305 32.4805C21.465 31.746 22.4612 31.3333 23.5 31.3333C24.5387 31.3333 25.535 31.746 26.2695 32.4805C27.004 33.215 27.4166 34.2112 27.4166 35.25Z"/>
      <path d="M35.25 15.6667C36.2887 15.6667 37.285 15.254 38.0195 14.5195C38.754 13.785 39.1666 12.7888 39.1666 11.75C39.1666 10.7112 38.754 9.71503 38.0195 8.98051C37.285 8.24599 36.2887 7.83334 35.25 7.83334C34.2112 7.83334 33.215 8.24599 32.4805 8.98051C31.746 9.71503 31.3333 10.7112 31.3333 11.75C31.3333 12.7888 31.746 13.785 32.4805 14.5195C33.215 15.254 34.2112 15.6667 35.25 15.6667Z"/>
      <path d="M39.1666 23.5C39.1666 24.5388 38.754 25.535 38.0195 26.2695C37.285 27.004 36.2887 27.4167 35.25 27.4167C34.2112 27.4167 33.215 27.004 32.4805 26.2695C31.746 25.535 31.3333 24.5388 31.3333 23.5C31.3333 22.4612 31.746 21.465 32.4805 20.7305C33.215 19.996 34.2112 19.5833 35.25 19.5833C36.2887 19.5833 37.285 19.996 38.0195 20.7305C38.754 21.465 39.1666 22.4612 39.1666 23.5Z"/>
      <path d="M35.25 39.1667C36.2887 39.1667 37.285 38.754 38.0195 38.0195C38.754 37.285 39.1666 36.2888 39.1666 35.25C39.1666 34.2112 38.754 33.215 38.0195 32.4805C37.285 31.746 36.2887 31.3333 35.25 31.3333C34.2112 31.3333 33.215 31.746 32.4805 32.4805C31.746 33.215 31.3333 34.2112 31.3333 35.25C31.3333 36.2888 31.746 37.285 32.4805 38.0195C33.215 38.754 34.2112 39.1667 35.25 39.1667Z"/>
    </symbol>
  </defs>
</svg>









